 0
SECTION
 2
ENTITIES
  0
POLYLINE
 8
Group#1
 66
     1
70
    8
 10
0.0
 20
 0.0
 30
0.0
  0
VERTEX
  8
MY3DLAYER
10
17.93655549597486
20
-10.080495187058924
30
0.0
 70
     32
  0
VERTEX
  8
MY3DLAYER
10
17.936555495974865
20
21.169504812941074
30
0.0
 70
     32
  0
VERTEX
  8
MY3DLAYER
10
17.962220911853432
20
21.561083389601226
30
0.0
 70
     32
  0
VERTEX
  8
MY3DLAYER
10
18.03877801710766
20
21.945961948248637
30
0.0
 70
     32
  0
VERTEX
  8
MY3DLAYER
10
18.164916898441007
20
22.31755511003635
30
0.0
 70
     32
  0
VERTEX
  8
MY3DLAYER
10
18.33847928462155
20
22.669504812941078
30
0.0
 70
     32
  0
VERTEX
  8
MY3DLAYER
10
18.55649547510116
20
22.995789099967233
30
0.0
 70
     32
  0
VERTEX
  8
MY3DLAYER
10
18.815235152415223
20
23.290825156500716
30
0.0
 70
     32
  0
VERTEX
  8
MY3DLAYER
10
19.110271208948703
20
23.549564833814784
30
0.0
 70
     32
  0
VERTEX
  8
MY3DLAYER
10
19.436555495974865
20
23.767581024294394
30
0.0
 70
     32
  0
VERTEX
  8
MY3DLAYER
10
19.788505198879594
20
23.941143410474936
30
0.0
 70
     32
  0
VERTEX
  8
MY3DLAYER
10
20.160098360667302
20
24.06728229180828
30
0.0
 70
     32
  0
VERTEX
  8
MY3DLAYER
10
20.54497691931471
20
24.143839397062507
30
0.0
 70
     32
  0
VERTEX
  8
MY3DLAYER
10
20.936555495974865
20
24.169504812941074
30
0.0
 70
     32
  0
VERTEX
  8
MY3DLAYER
10
37.936555495974865
20
24.169504812941074
30
0.0
 70
     32
  0
VERTEX
  8
MY3DLAYER
10
37.936555495974865
20
104.16950481294107
30
0.0
 70
     32
  0
VERTEX
  8
MY3DLAYER
10
20.936555495974858
20
104.16950481294107
30
0.0
 70
     32
  0
VERTEX
  8
MY3DLAYER
10
20.544976919314703
20
104.19517022881965
30
0.0
 70
     32
  0
VERTEX
  8
MY3DLAYER
10
20.160098360667295
20
104.27172733407386
30
0.0
 70
     32
  0
VERTEX
  8
MY3DLAYER
10
19.78850519887959
20
104.3978662154072
30
0.0
 70
     32
  0
VERTEX
  8
MY3DLAYER
10
19.436555495974858
20
104.57142860158777
30
0.0
 70
     32
  0
VERTEX
  8
MY3DLAYER
10
19.1102712089487
20
104.78944479206739
30
0.0
 70
     32
  0
VERTEX
  8
MY3DLAYER
10
18.815235152415216
20
105.04818446938143
30
0.0
 70
     32
  0
VERTEX
  8
MY3DLAYER
10
18.556495475101155
20
105.34322052591492
30
0.0
 70
     32
  0
VERTEX
  8
MY3DLAYER
10
18.338479284621545
20
105.66950481294107
30
0.0
 70
     32
  0
VERTEX
  8
MY3DLAYER
10
18.164916898441
20
106.0214545158458
30
0.0
 70
     32
  0
VERTEX
  8
MY3DLAYER
10
18.038778017107656
20
106.39304767763352
30
0.0
 70
     32
  0
VERTEX
  8
MY3DLAYER
10
17.962220911853432
20
106.77792623628092
30
0.0
 70
     32
  0
VERTEX
  8
MY3DLAYER
10
17.93655549597486
20
107.16950481294107
30
0.0
 70
     32
  0
VERTEX
  8
MY3DLAYER
10
17.93655549597486
20
140.91950481294106
30
0.0
 70
     32
  0
VERTEX
  8
MY3DLAYER
10
17.962220911853432
20
141.31108338960124
30
0.0
 70
     32
  0
VERTEX
  8
MY3DLAYER
10
18.038778017107656
20
141.69596194824862
30
0.0
 70
     32
  0
VERTEX
  8
MY3DLAYER
10
18.164916898441003
20
142.06755511003632
30
0.0
 70
     32
  0
VERTEX
  8
MY3DLAYER
10
18.338479284621545
20
142.41950481294108
30
0.0
 70
     32
  0
VERTEX
  8
MY3DLAYER
10
18.55649547510116
20
142.74578909996725
30
0.0
 70
     32
  0
VERTEX
  8
MY3DLAYER
10
18.815235152415223
20
143.04082515650072
30
0.0
 70
     32
  0
VERTEX
  8
MY3DLAYER
10
19.110271208948703
20
143.29956483381477
30
0.0
 70
     32
  0
VERTEX
  8
MY3DLAYER
10
19.43655549597487
20
143.5175810242944
30
0.0
 70
     32
  0
VERTEX
  8
MY3DLAYER
10
19.7885051988796
20
143.69114341047495
30
0.0
 70
     32
  0
VERTEX
  8
MY3DLAYER
10
20.16009836066731
20
143.81728229180828
30
0.0
 70
     32
  0
VERTEX
  8
MY3DLAYER
10
20.54497691931472
20
143.89383939706252
30
0.0
 70
     32
  0
VERTEX
  8
MY3DLAYER
10
20.936555495974876
20
143.9195048129411
30
0.0
 70
     32
  0
VERTEX
  8
MY3DLAYER
10
194.93655549597483
20
143.91950481294108
30
0.0
 70
     32
  0
VERTEX
  8
MY3DLAYER
10
195.328134072635
20
143.8938393970625
30
0.0
 70
     32
  0
VERTEX
  8
MY3DLAYER
10
195.7130126312824
20
143.81728229180828
30
0.0
 70
     32
  0
VERTEX
  8
MY3DLAYER
10
196.0846057930701
20
143.69114341047495
30
0.0
 70
     32
  0
VERTEX
  8
MY3DLAYER
10
196.43655549597483
20
143.5175810242944
30
0.0
 70
     32
  0
VERTEX
  8
MY3DLAYER
10
196.762839783001
20
143.29956483381477
30
0.0
 70
     32
  0
VERTEX
  8
MY3DLAYER
10
197.0578758395345
20
143.04082515650072
30
0.0
 70
     32
  0
VERTEX
  8
MY3DLAYER
10
197.31661551684854
20
142.74578909996725
30
0.0
 70
     32
  0
VERTEX
  8
MY3DLAYER
10
197.53463170732815
20
142.41950481294108
30
0.0
 70
     32
  0
VERTEX
  8
MY3DLAYER
10
197.70819409350872
20
142.06755511003632
30
0.0
 70
     32
  0
VERTEX
  8
MY3DLAYER
10
197.83433297484206
20
141.69596194824862
30
0.0
 70
     32
  0
VERTEX
  8
MY3DLAYER
10
197.91089008009627
20
141.31108338960124
30
0.0
 70
     32
  0
VERTEX
  8
MY3DLAYER
10
197.93655549597486
20
140.91950481294106
30
0.0
 70
     32
  0
VERTEX
  8
MY3DLAYER
10
197.93655549597486
20
107.16950481294107
30
0.0
 70
     32
  0
VERTEX
  8
MY3DLAYER
10
197.91089008009627
20
106.77792623628092
30
0.0
 70
     32
  0
VERTEX
  8
MY3DLAYER
10
197.83433297484206
20
106.39304767763352
30
0.0
 70
     32
  0
VERTEX
  8
MY3DLAYER
10
197.70819409350872
20
106.0214545158458
30
0.0
 70
     32
  0
VERTEX
  8
MY3DLAYER
10
197.53463170732815
20
105.66950481294107
30
0.0
 70
     32
  0
VERTEX
  8
MY3DLAYER
10
197.31661551684854
20
105.34322052591492
30
0.0
 70
     32
  0
VERTEX
  8
MY3DLAYER
10
197.05787583953452
20
105.04818446938143
30
0.0
 70
     32
  0
VERTEX
  8
MY3DLAYER
10
196.762839783001
20
104.78944479206739
30
0.0
 70
     32
  0
VERTEX
  8
MY3DLAYER
10
196.43655549597486
20
104.57142860158777
30
0.0
 70
     32
  0
VERTEX
  8
MY3DLAYER
10
196.08460579307012
20
104.3978662154072
30
0.0
 70
     32
  0
VERTEX
  8
MY3DLAYER
10
195.71301263128242
20
104.27172733407386
30
0.0
 70
     32
  0
VERTEX
  8
MY3DLAYER
10
195.328134072635
20
104.19517022881965
30
0.0
 70
     32
  0
VERTEX
  8
MY3DLAYER
10
194.93655549597486
20
104.16950481294107
30
0.0
 70
     32
  0
VERTEX
  8
MY3DLAYER
10
177.93655549597486
20
104.16950481294107
30
0.0
 70
     32
  0
VERTEX
  8
MY3DLAYER
10
177.93655549597483
20
24.169504812941074
30
0.0
 70
     32
  0
VERTEX
  8
MY3DLAYER
10
194.93655549597486
20
24.169504812941074
30
0.0
 70
     32
  0
VERTEX
  8
MY3DLAYER
10
195.328134072635
20
24.143839397062507
30
0.0
 70
     32
  0
VERTEX
  8
MY3DLAYER
10
195.71301263128242
20
24.06728229180828
30
0.0
 70
     32
  0
VERTEX
  8
MY3DLAYER
10
196.08460579307012
20
23.941143410474936
30
0.0
 70
     32
  0
VERTEX
  8
MY3DLAYER
10
196.43655549597486
20
23.767581024294387
30
0.0
 70
     32
  0
VERTEX
  8
MY3DLAYER
10
196.76283978300103
20
23.549564833814777
30
0.0
 70
     32
  0
VERTEX
  8
MY3DLAYER
10
197.05787583953452
20
23.290825156500713
30
0.0
 70
     32
  0
VERTEX
  8
MY3DLAYER
10
197.31661551684857
20
22.995789099967233
30
0.0
 70
     32
  0
VERTEX
  8
MY3DLAYER
10
197.53463170732817
20
22.669504812941067
30
0.0
 70
     32
  0
VERTEX
  8
MY3DLAYER
10
197.70819409350872
20
22.317555110036338
30
0.0
 70
     32
  0
VERTEX
  8
MY3DLAYER
10
197.83433297484206
20
21.945961948248627
30
0.0
 70
     32
  0
VERTEX
  8
MY3DLAYER
10
197.9108900800963
20
21.561083389601215
30
0.0
 70
     32
  0
VERTEX
  8
MY3DLAYER
10
197.9365554959749
20
21.16950481294106
30
0.0
 70
     32
  0
VERTEX
  8
MY3DLAYER
10
197.93655549597486
20
-10.080495187058924
30
0.0
 70
     32
  0
VERTEX
  8
MY3DLAYER
10
197.91089008009627
20
-10.472073763719077
30
0.0
 70
     32
  0
VERTEX
  8
MY3DLAYER
10
197.83433297484206
20
-10.856952322366483
30
0.0
 70
     32
  0
VERTEX
  8
MY3DLAYER
10
197.70819409350872
20
-11.228545484154191
30
0.0
 70
     32
  0
VERTEX
  8
MY3DLAYER
10
197.53463170732815
20
-11.580495187058919
30
0.0
 70
     32
  0
VERTEX
  8
MY3DLAYER
10
197.31661551684854
20
-11.90677947408508
30
0.0
 70
     32
  0
VERTEX
  8
MY3DLAYER
10
197.05787583953452
20
-12.20181553061856
30
0.0
 70
     32
  0
VERTEX
  8
MY3DLAYER
10
196.762839783001
20
-12.460555207932623
30
0.0
 70
     32
  0
VERTEX
  8
MY3DLAYER
10
196.43655549597486
20
-12.678571398412233
30
0.0
 70
     32
  0
VERTEX
  8
MY3DLAYER
10
196.08460579307012
20
-12.852133784592777
30
0.0
 70
     32
  0
VERTEX
  8
MY3DLAYER
10
195.71301263128242
20
-12.97827266592612
30
0.0
 70
     32
  0
VERTEX
  8
MY3DLAYER
10
195.328134072635
20
-13.054829771180346
30
0.0
 70
     32
  0
VERTEX
  8
MY3DLAYER
10
194.93655549597486
20
-13.080495187058915
30
0.0
 70
     32
  0
VERTEX
  8
MY3DLAYER
10
20.93655549597486
20
-13.080495187058924
30
0.0
 70
     32
  0
VERTEX
  8
MY3DLAYER
10
20.544976919314706
20
-13.054829771180355
30
0.0
 70
     32
  0
VERTEX
  8
MY3DLAYER
10
20.1600983606673
20
-12.978272665926129
30
0.0
 70
     32
  0
VERTEX
  8
MY3DLAYER
10
19.78850519887959
20
-12.852133784592782
30
0.0
 70
     32
  0
VERTEX
  8
MY3DLAYER
10
19.43655549597486
20
-12.67857139841224
30
0.0
 70
     32
  0
VERTEX
  8
MY3DLAYER
10
19.1102712089487
20
-12.460555207932629
30
0.0
 70
     32
  0
VERTEX
  8
MY3DLAYER
10
18.81523515241522
20
-12.201815530618566
30
0.0
 70
     32
  0
VERTEX
  8
MY3DLAYER
10
18.55649547510116
20
-11.906779474085084
30
0.0
 70
     32
  0
VERTEX
  8
MY3DLAYER
10
18.338479284621545
20
-11.580495187058924
30
0.0
 70
     32
  0
VERTEX
  8
MY3DLAYER
10
18.164916898441003
20
-11.228545484154193
30
0.0
 70
     32
  0
VERTEX
  8
MY3DLAYER
10
18.038778017107656
20
-10.856952322366485
30
0.0
 70
     32
  0
VERTEX
  8
MY3DLAYER
10
17.962220911853432
20
-10.472073763719079
30
0.0
 70
     32
  0
VERTEX
  8
MY3DLAYER
10
17.93655549597486
20
-10.080495187058924
30
0.0
 70
     32
  0
SEQEND
  0
POLYLINE
 8
Group#1
 66
     1
70
    8
 10
0.0
 20
 0.0
 30
0.0
  0
VERTEX
  8
MY3DLAYER
10
114.43655549597487
20
4.419504812941073
30
0.0
 70
     32
  0
VERTEX
  8
MY3DLAYER
10
114.4706296696858
20
4.16068576783855
30
0.0
 70
     32
  0
VERTEX
  8
MY3DLAYER
10
114.57053009219044
20
3.919504812941071
30
0.0
 70
     32
  0
VERTEX
  8
MY3DLAYER
10
114.72944871478832
20
3.7123980317545233
30
0.0
 70
     32
  0
VERTEX
  8
MY3DLAYER
10
114.93655549597487
20
3.5534794091566333
30
0.0
 70
     32
  0
VERTEX
  8
MY3DLAYER
10
115.17773645087236
20
3.4535789866520035
30
0.0
 70
     32
  0
VERTEX
  8
MY3DLAYER
10
115.43655549597487
20
3.4195048129410717
30
0.0
 70
     32
  0
VERTEX
  8
MY3DLAYER
10
115.69537454107738
20
3.4535789866520035
30
0.0
 70
     32
  0
VERTEX
  8
MY3DLAYER
10
115.93655549597487
20
3.5534794091566333
30
0.0
 70
     32
  0
VERTEX
  8
MY3DLAYER
10
116.14366227716143
20
3.7123980317545233
30
0.0
 70
     32
  0
VERTEX
  8
MY3DLAYER
10
116.3025808997593
20
3.919504812941071
30
0.0
 70
     32
  0
VERTEX
  8
MY3DLAYER
10
116.40248132226392
20
4.16068576783855
30
0.0
 70
     32
  0
VERTEX
  8
MY3DLAYER
10
116.43655549597487
20
4.419504812941073
30
0.0
 70
     32
  0
VERTEX
  8
MY3DLAYER
10
116.40248132226392
20
4.67832385804359
30
0.0
 70
     32
  0
VERTEX
  8
MY3DLAYER
10
116.3025808997593
20
4.919504812941072
30
0.0
 70
     32
  0
VERTEX
  8
MY3DLAYER
10
116.14366227716143
20
5.126611594127619
30
0.0
 70
     32
  0
VERTEX
  8
MY3DLAYER
10
115.93655549597487
20
5.285530216725509
30
0.0
 70
     32
  0
VERTEX
  8
MY3DLAYER
10
115.69537454107738
20
5.385430639230139
30
0.0
 70
     32
  0
VERTEX
  8
MY3DLAYER
10
115.43655549597487
20
5.419504812941071
30
0.0
 70
     32
  0
VERTEX
  8
MY3DLAYER
10
115.17773645087236
20
5.385430639230139
30
0.0
 70
     32
  0
VERTEX
  8
MY3DLAYER
10
114.93655549597487
20
5.285530216725509
30
0.0
 70
     32
  0
VERTEX
  8
MY3DLAYER
10
114.72944871478832
20
5.126611594127619
30
0.0
 70
     32
  0
VERTEX
  8
MY3DLAYER
10
114.57053009219044
20
4.919504812941072
30
0.0
 70
     32
  0
VERTEX
  8
MY3DLAYER
10
114.4706296696858
20
4.678323858043592
30
0.0
 70
     32
  0
VERTEX
  8
MY3DLAYER
10
114.43655549597487
20
4.419504812941073
30
0.0
 70
     32
  0
SEQEND
  0
POLYLINE
 8
Group#1
 66
     1
70
    8
 10
0.0
 20
 0.0
 30
0.0
  0
VERTEX
  8
MY3DLAYER
10
101.40248132226394
20
4.67832385804359
30
0.0
 70
     32
  0
VERTEX
  8
MY3DLAYER
10
101.3025808997593
20
4.919504812941072
30
0.0
 70
     32
  0
VERTEX
  8
MY3DLAYER
10
101.14366227716143
20
5.126611594127616
30
0.0
 70
     32
  0
VERTEX
  8
MY3DLAYER
10
100.93655549597487
20
5.285530216725509
30
0.0
 70
     32
  0
VERTEX
  8
MY3DLAYER
10
100.69537454107738
20
5.385430639230139
30
0.0
 70
     32
  0
VERTEX
  8
MY3DLAYER
10
100.43655549597487
20
5.419504812941071
30
0.0
 70
     32
  0
VERTEX
  8
MY3DLAYER
10
100.17773645087235
20
5.385430639230139
30
0.0
 70
     32
  0
VERTEX
  8
MY3DLAYER
10
99.93655549597487
20
5.285530216725509
30
0.0
 70
     32
  0
VERTEX
  8
MY3DLAYER
10
99.72944871478832
20
5.126611594127616
30
0.0
 70
     32
  0
VERTEX
  8
MY3DLAYER
10
99.57053009219044
20
4.919504812941072
30
0.0
 70
     32
  0
VERTEX
  8
MY3DLAYER
10
99.47062966968579
20
4.678323858043592
30
0.0
 70
     32
  0
VERTEX
  8
MY3DLAYER
10
99.43655549597487
20
4.419504812941073
30
0.0
 70
     32
  0
VERTEX
  8
MY3DLAYER
10
99.47062966968579
20
4.16068576783855
30
0.0
 70
     32
  0
VERTEX
  8
MY3DLAYER
10
99.57053009219044
20
3.9195048129410734
30
0.0
 70
     32
  0
VERTEX
  8
MY3DLAYER
10
99.72944871478832
20
3.712398031754526
30
0.0
 70
     32
  0
VERTEX
  8
MY3DLAYER
10
99.93655549597487
20
3.5534794091566333
30
0.0
 70
     32
  0
VERTEX
  8
MY3DLAYER
10
100.17773645087235
20
3.453578986652006
30
0.0
 70
     32
  0
VERTEX
  8
MY3DLAYER
10
100.43655549597487
20
3.4195048129410743
30
0.0
 70
     32
  0
VERTEX
  8
MY3DLAYER
10
100.69537454107738
20
3.453578986652006
30
0.0
 70
     32
  0
VERTEX
  8
MY3DLAYER
10
100.93655549597487
20
3.5534794091566333
30
0.0
 70
     32
  0
VERTEX
  8
MY3DLAYER
10
101.14366227716143
20
3.7123980317545233
30
0.0
 70
     32
  0
VERTEX
  8
MY3DLAYER
10
101.3025808997593
20
3.919504812941071
30
0.0
 70
     32
  0
VERTEX
  8
MY3DLAYER
10
101.40248132226394
20
4.16068576783855
30
0.0
 70
     32
  0
VERTEX
  8
MY3DLAYER
10
101.43655549597487
20
4.419504812941073
30
0.0
 70
     32
  0
VERTEX
  8
MY3DLAYER
10
101.40248132226394
20
4.67832385804359
30
0.0
 70
     32
  0
SEQEND
  0
POLYLINE
 8
Group#1
 66
     1
70
    8
 10
0.0
 20
 0.0
 30
0.0
  0
VERTEX
  8
MY3DLAYER
10
114.4706296696858
20
121.67150254908253
30
0.0
 70
     32
  0
VERTEX
  8
MY3DLAYER
10
114.43655549597487
20
121.41268350398002
30
0.0
 70
     32
  0
VERTEX
  8
MY3DLAYER
10
114.4706296696858
20
121.1538644588775
30
0.0
 70
     32
  0
VERTEX
  8
MY3DLAYER
10
114.57053009219044
20
120.91268350398002
30
0.0
 70
     32
  0
VERTEX
  8
MY3DLAYER
10
114.72944871478832
20
120.70557672279348
30
0.0
 70
     32
  0
VERTEX
  8
MY3DLAYER
10
114.93655549597487
20
120.54665810019559
30
0.0
 70
     32
  0
VERTEX
  8
MY3DLAYER
10
115.17773645087236
20
120.44675767769097
30
0.0
 70
     32
  0
VERTEX
  8
MY3DLAYER
10
115.43655549597487
20
120.41268350398002
30
0.0
 70
     32
  0
VERTEX
  8
MY3DLAYER
10
115.69537454107738
20
120.44675767769097
30
0.0
 70
     32
  0
VERTEX
  8
MY3DLAYER
10
115.93655549597487
20
120.54665810019559
30
0.0
 70
     32
  0
VERTEX
  8
MY3DLAYER
10
116.14366227716143
20
120.70557672279348
30
0.0
 70
     32
  0
VERTEX
  8
MY3DLAYER
10
116.3025808997593
20
120.91268350398002
30
0.0
 70
     32
  0
VERTEX
  8
MY3DLAYER
10
116.40248132226392
20
121.1538644588775
30
0.0
 70
     32
  0
VERTEX
  8
MY3DLAYER
10
116.43655549597487
20
121.41268350398002
30
0.0
 70
     32
  0
VERTEX
  8
MY3DLAYER
10
116.40248132226392
20
121.67150254908253
30
0.0
 70
     32
  0
VERTEX
  8
MY3DLAYER
10
116.3025808997593
20
121.91268350398002
30
0.0
 70
     32
  0
VERTEX
  8
MY3DLAYER
10
116.14366227716143
20
122.11979028516657
30
0.0
 70
     32
  0
VERTEX
  8
MY3DLAYER
10
115.93655549597487
20
122.27870890776445
30
0.0
 70
     32
  0
VERTEX
  8
MY3DLAYER
10
115.69537454107738
20
122.37860933026909
30
0.0
 70
     32
  0
VERTEX
  8
MY3DLAYER
10
115.43655549597487
20
122.41268350398002
30
0.0
 70
     32
  0
VERTEX
  8
MY3DLAYER
10
115.17773645087236
20
122.37860933026909
30
0.0
 70
     32
  0
VERTEX
  8
MY3DLAYER
10
114.93655549597487
20
122.27870890776445
30
0.0
 70
     32
  0
VERTEX
  8
MY3DLAYER
10
114.72944871478832
20
122.11979028516657
30
0.0
 70
     32
  0
VERTEX
  8
MY3DLAYER
10
114.57053009219044
20
121.91268350398002
30
0.0
 70
     32
  0
VERTEX
  8
MY3DLAYER
10
114.4706296696858
20
121.67150254908253
30
0.0
 70
     32
  0
SEQEND
  0
POLYLINE
 8
Group#1
 66
     1
70
    8
 10
0.0
 20
 0.0
 30
0.0
  0
VERTEX
  8
MY3DLAYER
10
100.93655549597487
20
120.54665810019559
30
0.0
 70
     32
  0
VERTEX
  8
MY3DLAYER
10
101.14366227716143
20
120.70557672279348
30
0.0
 70
     32
  0
VERTEX
  8
MY3DLAYER
10
101.3025808997593
20
120.91268350398002
30
0.0
 70
     32
  0
VERTEX
  8
MY3DLAYER
10
101.40248132226394
20
121.1538644588775
30
0.0
 70
     32
  0
VERTEX
  8
MY3DLAYER
10
101.43655549597487
20
121.41268350398002
30
0.0
 70
     32
  0
VERTEX
  8
MY3DLAYER
10
101.40248132226394
20
121.67150254908253
30
0.0
 70
     32
  0
VERTEX
  8
MY3DLAYER
10
101.3025808997593
20
121.91268350398002
30
0.0
 70
     32
  0
VERTEX
  8
MY3DLAYER
10
101.14366227716143
20
122.11979028516657
30
0.0
 70
     32
  0
VERTEX
  8
MY3DLAYER
10
100.93655549597487
20
122.27870890776445
30
0.0
 70
     32
  0
VERTEX
  8
MY3DLAYER
10
100.69537454107738
20
122.37860933026909
30
0.0
 70
     32
  0
VERTEX
  8
MY3DLAYER
10
100.43655549597487
20
122.41268350398002
30
0.0
 70
     32
  0
VERTEX
  8
MY3DLAYER
10
100.17773645087235
20
122.37860933026909
30
0.0
 70
     32
  0
VERTEX
  8
MY3DLAYER
10
99.93655549597487
20
122.27870890776445
30
0.0
 70
     32
  0
VERTEX
  8
MY3DLAYER
10
99.72944871478832
20
122.11979028516657
30
0.0
 70
     32
  0
VERTEX
  8
MY3DLAYER
10
99.57053009219044
20
121.91268350398002
30
0.0
 70
     32
  0
VERTEX
  8
MY3DLAYER
10
99.47062966968579
20
121.67150254908253
30
0.0
 70
     32
  0
VERTEX
  8
MY3DLAYER
10
99.43655549597487
20
121.41268350398002
30
0.0
 70
     32
  0
VERTEX
  8
MY3DLAYER
10
99.47062966968579
20
121.1538644588775
30
0.0
 70
     32
  0
VERTEX
  8
MY3DLAYER
10
99.57053009219044
20
120.91268350398002
30
0.0
 70
     32
  0
VERTEX
  8
MY3DLAYER
10
99.72944871478832
20
120.70557672279348
30
0.0
 70
     32
  0
VERTEX
  8
MY3DLAYER
10
99.93655549597487
20
120.54665810019559
30
0.0
 70
     32
  0
VERTEX
  8
MY3DLAYER
10
100.17773645087235
20
120.44675767769097
30
0.0
 70
     32
  0
VERTEX
  8
MY3DLAYER
10
100.43655549597487
20
120.41268350398002
30
0.0
 70
     32
  0
VERTEX
  8
MY3DLAYER
10
100.69537454107738
20
120.44675767769097
30
0.0
 70
     32
  0
VERTEX
  8
MY3DLAYER
10
100.93655549597487
20
120.54665810019559
30
0.0
 70
     32
  0
SEQEND
  0
POLYLINE
 8
Group#1
 66
     1
70
    8
 10
0.0
 20
 0.0
 30
0.0
  0
VERTEX
  8
MY3DLAYER
10
152.93655549597486
20
135.91950481294108
30
0.0
 70
     32
  0
VERTEX
  8
MY3DLAYER
10
172.93655549597486
20
135.91950481294108
30
0.0
 70
     32
  0
VERTEX
  8
MY3DLAYER
10
172.93655549597486
20
138.91950481294108
30
0.0
 70
     32
  0
VERTEX
  8
MY3DLAYER
10
152.93655549597486
20
138.91950481294108
30
0.0
 70
     32
  0
VERTEX
  8
MY3DLAYER
10
152.93655549597486
20
135.91950481294108
30
0.0
 70
     32
  0
SEQEND
  0
POLYLINE
 8
Group#1
 66
     1
70
    8
 10
0.0
 20
 0.0
 30
0.0
  0
VERTEX
  8
MY3DLAYER
10
72.93655549597489
20
135.91950481294108
30
0.0
 70
     32
  0
VERTEX
  8
MY3DLAYER
10
142.93655549597486
20
135.91950481294108
30
0.0
 70
     32
  0
VERTEX
  8
MY3DLAYER
10
142.93655549597486
20
138.91950481294108
30
0.0
 70
     32
  0
VERTEX
  8
MY3DLAYER
10
72.93655549597489
20
138.91950481294108
30
0.0
 70
     32
  0
VERTEX
  8
MY3DLAYER
10
72.93655549597489
20
135.91950481294108
30
0.0
 70
     32
  0
SEQEND
  0
POLYLINE
 8
Group#1
 66
     1
70
    8
 10
0.0
 20
 0.0
 30
0.0
  0
VERTEX
  8
MY3DLAYER
10
42.936555495974865
20
138.91950481294108
30
0.0
 70
     32
  0
VERTEX
  8
MY3DLAYER
10
42.936555495974865
20
135.91950481294108
30
0.0
 70
     32
  0
VERTEX
  8
MY3DLAYER
10
62.936555495974865
20
135.91950481294108
30
0.0
 70
     32
  0
VERTEX
  8
MY3DLAYER
10
62.936555495974865
20
138.91950481294108
30
0.0
 70
     32
  0
VERTEX
  8
MY3DLAYER
10
42.936555495974865
20
138.91950481294108
30
0.0
 70
     32
  0
SEQEND
  0
POLYLINE
 8
Group#1
 66
     1
70
    8
 10
0.0
 20
 0.0
 30
0.0
  0
VERTEX
  8
MY3DLAYER
10
170.78655549597482
20
62.870466707264434
30
0.0
 70
     32
  0
VERTEX
  8
MY3DLAYER
10
171.14832692832107
20
62.72061607350748
30
0.0
 70
     32
  0
VERTEX
  8
MY3DLAYER
10
171.53655549597482
20
62.669504812941085
30
0.0
 70
     32
  0
VERTEX
  8
MY3DLAYER
10
171.9247840636286
20
62.72061607350748
30
0.0
 70
     32
  0
VERTEX
  8
MY3DLAYER
10
172.28655549597482
20
62.870466707264434
30
0.0
 70
     32
  0
VERTEX
  8
MY3DLAYER
10
172.59721566775465
20
63.108844641161255
30
0.0
 70
     32
  0
VERTEX
  8
MY3DLAYER
10
172.83559360165148
20
63.419504812941085
30
0.0
 70
     32
  0
VERTEX
  8
MY3DLAYER
10
172.98544423540844
20
63.7812762452873
30
0.0
 70
     32
  0
VERTEX
  8
MY3DLAYER
10
173.03655549597482
20
64.16950481294108
30
0.0
 70
     32
  0
VERTEX
  8
MY3DLAYER
10
172.98544423540844
20
64.55773338059485
30
0.0
 70
     32
  0
VERTEX
  8
MY3DLAYER
10
172.83559360165148
20
64.91950481294108
30
0.0
 70
     32
  0
VERTEX
  8
MY3DLAYER
10
172.59721566775465
20
65.2301649847209
30
0.0
 70
     32
  0
VERTEX
  8
MY3DLAYER
10
172.28655549597485
20
65.46854291861773
30
0.0
 70
     32
  0
VERTEX
  8
MY3DLAYER
10
171.9247840636286
20
65.61839355237468
30
0.0
 70
     32
  0
VERTEX
  8
MY3DLAYER
10
171.53655549597482
20
65.66950481294108
30
0.0
 70
     32
  0
VERTEX
  8
MY3DLAYER
10
171.14832692832107
20
65.61839355237468
30
0.0
 70
     32
  0
VERTEX
  8
MY3DLAYER
10
170.78655549597485
20
65.46854291861774
30
0.0
 70
     32
  0
VERTEX
  8
MY3DLAYER
10
170.47589532419502
20
65.2301649847209
30
0.0
 70
     32
  0
VERTEX
  8
MY3DLAYER
10
170.2375173902982
20
64.91950481294108
30
0.0
 70
     32
  0
VERTEX
  8
MY3DLAYER
10
170.08766675654124
20
64.55773338059485
30
0.0
 70
     32
  0
VERTEX
  8
MY3DLAYER
10
170.03655549597482
20
64.16950481294108
30
0.0
 70
     32
  0
VERTEX
  8
MY3DLAYER
10
170.08766675654124
20
63.7812762452873
30
0.0
 70
     32
  0
VERTEX
  8
MY3DLAYER
10
170.2375173902982
20
63.419504812941085
30
0.0
 70
     32
  0
VERTEX
  8
MY3DLAYER
10
170.47589532419502
20
63.108844641161255
30
0.0
 70
     32
  0
VERTEX
  8
MY3DLAYER
10
170.78655549597482
20
62.870466707264434
30
0.0
 70
     32
  0
SEQEND
  0
POLYLINE
 8
Group#1
 66
     1
70
    8
 10
0.0
 20
 0.0
 30
0.0
  0
VERTEX
  8
MY3DLAYER
10
182.93655549597486
20
-8.08049518705893
30
0.0
 70
     32
  0
VERTEX
  8
MY3DLAYER
10
185.93655549597483
20
-8.08049518705893
30
0.0
 70
     32
  0
VERTEX
  8
MY3DLAYER
10
185.93655549597483
20
1.9195048129410717
30
0.0
 70
     32
  0
VERTEX
  8
MY3DLAYER
10
182.93655549597486
20
1.9195048129410717
30
0.0
 70
     32
  0
VERTEX
  8
MY3DLAYER
10
182.93655549597486
20
-8.08049518705893
30
0.0
 70
     32
  0
SEQEND
  0
POLYLINE
 8
Group#1
 66
     1
70
    8
 10
0.0
 20
 0.0
 30
0.0
  0
VERTEX
  8
MY3DLAYER
10
182.93655549597486
20
16.919504812941096
30
0.0
 70
     32
  0
VERTEX
  8
MY3DLAYER
10
182.93655549597486
20
6.919504812941102
30
0.0
 70
     32
  0
VERTEX
  8
MY3DLAYER
10
185.93655549597483
20
6.919504812941102
30
0.0
 70
     32
  0
VERTEX
  8
MY3DLAYER
10
185.93655549597483
20
16.919504812941096
30
0.0
 70
     32
  0
VERTEX
  8
MY3DLAYER
10
182.93655549597486
20
16.919504812941096
30
0.0
 70
     32
  0
SEQEND
  0
POLYLINE
 8
Group#1
 66
     1
70
    8
 10
0.0
 20
 0.0
 30
0.0
  0
VERTEX
  8
MY3DLAYER
10
29.93655549597486
20
1.9195048129410717
30
0.0
 70
     32
  0
VERTEX
  8
MY3DLAYER
10
29.93655549597486
20
-8.08049518705893
30
0.0
 70
     32
  0
VERTEX
  8
MY3DLAYER
10
32.936555495974865
20
-8.08049518705893
30
0.0
 70
     32
  0
VERTEX
  8
MY3DLAYER
10
32.936555495974865
20
1.9195048129410717
30
0.0
 70
     32
  0
VERTEX
  8
MY3DLAYER
10
29.93655549597486
20
1.9195048129410717
30
0.0
 70
     32
  0
SEQEND
  0
POLYLINE
 8
Group#1
 66
     1
70
    8
 10
0.0
 20
 0.0
 30
0.0
  0
VERTEX
  8
MY3DLAYER
10
32.936555495974865
20
16.91950481294107
30
0.0
 70
     32
  0
VERTEX
  8
MY3DLAYER
10
29.93655549597486
20
16.91950481294107
30
0.0
 70
     32
  0
VERTEX
  8
MY3DLAYER
10
29.93655549597486
20
6.91950481294108
30
0.0
 70
     32
  0
VERTEX
  8
MY3DLAYER
10
32.936555495974865
20
6.91950481294108
30
0.0
 70
     32
  0
VERTEX
  8
MY3DLAYER
10
32.936555495974865
20
16.91950481294107
30
0.0
 70
     32
  0
SEQEND
  0
POLYLINE
 8
Group#1
 66
     1
70
    8
 10
0.0
 20
 0.0
 30
0.0
  0
VERTEX
  8
MY3DLAYER
10
32.936555495974865
20
119.16950481294104
30
0.0
 70
     32
  0
VERTEX
  8
MY3DLAYER
10
29.93655549597486
20
119.16950481294104
30
0.0
 70
     32
  0
VERTEX
  8
MY3DLAYER
10
29.93655549597486
20
109.16950481294107
30
0.0
 70
     32
  0
VERTEX
  8
MY3DLAYER
10
32.936555495974865
20
109.16950481294107
30
0.0
 70
     32
  0
VERTEX
  8
MY3DLAYER
10
32.936555495974865
20
119.16950481294104
30
0.0
 70
     32
  0
SEQEND
  0
POLYLINE
 8
Group#1
 66
     1
70
    8
 10
0.0
 20
 0.0
 30
0.0
  0
VERTEX
  8
MY3DLAYER
10
32.93655549597487
20
138.91950481294108
30
0.0
 70
     32
  0
VERTEX
  8
MY3DLAYER
10
29.93655549597486
20
138.91950481294108
30
0.0
 70
     32
  0
VERTEX
  8
MY3DLAYER
10
29.93655549597486
20
128.9195048129411
30
0.0
 70
     32
  0
VERTEX
  8
MY3DLAYER
10
32.93655549597487
20
128.9195048129411
30
0.0
 70
     32
  0
VERTEX
  8
MY3DLAYER
10
32.93655549597487
20
138.91950481294108
30
0.0
 70
     32
  0
SEQEND
  0
POLYLINE
 8
Group#1
 66
     1
70
    8
 10
0.0
 20
 0.0
 30
0.0
  0
VERTEX
  8
MY3DLAYER
10
185.93655549597486
20
109.16950481294107
30
0.0
 70
     32
  0
VERTEX
  8
MY3DLAYER
10
185.93655549597486
20
119.16950481294104
30
0.0
 70
     32
  0
VERTEX
  8
MY3DLAYER
10
182.93655549597486
20
119.16950481294104
30
0.0
 70
     32
  0
VERTEX
  8
MY3DLAYER
10
182.93655549597486
20
109.16950481294107
30
0.0
 70
     32
  0
VERTEX
  8
MY3DLAYER
10
185.93655549597486
20
109.16950481294107
30
0.0
 70
     32
  0
SEQEND
  0
POLYLINE
 8
Group#1
 66
     1
70
    8
 10
0.0
 20
 0.0
 30
0.0
  0
VERTEX
  8
MY3DLAYER
10
182.93655549597486
20
138.91950481294108
30
0.0
 70
     32
  0
VERTEX
  8
MY3DLAYER
10
182.93655549597486
20
128.9195048129411
30
0.0
 70
     32
  0
VERTEX
  8
MY3DLAYER
10
185.93655549597486
20
128.9195048129411
30
0.0
 70
     32
  0
VERTEX
  8
MY3DLAYER
10
185.93655549597486
20
138.91950481294108
30
0.0
 70
     32
  0
VERTEX
  8
MY3DLAYER
10
182.93655549597486
20
138.91950481294108
30
0.0
 70
     32
  0
SEQEND
  0
POLYLINE
 8
Group#1
 66
     1
70
    8
 10
0.0
 20
 0.0
 30
0.0
  0
VERTEX
  8
MY3DLAYER
10
132.1375173902982
20
63.419504812941085
30
0.0
 70
     32
  0
VERTEX
  8
MY3DLAYER
10
132.375895324195
20
63.108844641161255
30
0.0
 70
     32
  0
VERTEX
  8
MY3DLAYER
10
132.68655549597483
20
62.870466707264434
30
0.0
 70
     32
  0
VERTEX
  8
MY3DLAYER
10
133.04832692832105
20
62.72061607350748
30
0.0
 70
     32
  0
VERTEX
  8
MY3DLAYER
10
133.43655549597483
20
62.669504812941085
30
0.0
 70
     32
  0
VERTEX
  8
MY3DLAYER
10
133.8247840636286
20
62.72061607350748
30
0.0
 70
     32
  0
VERTEX
  8
MY3DLAYER
10
134.18655549597483
20
62.87046670726442
30
0.0
 70
     32
  0
VERTEX
  8
MY3DLAYER
10
134.49721566775466
20
63.108844641161255
30
0.0
 70
     32
  0
VERTEX
  8
MY3DLAYER
10
134.7355936016515
20
63.419504812941085
30
0.0
 70
     32
  0
VERTEX
  8
MY3DLAYER
10
134.88544423540844
20
63.7812762452873
30
0.0
 70
     32
  0
VERTEX
  8
MY3DLAYER
10
134.93655549597483
20
64.16950481294108
30
0.0
 70
     32
  0
VERTEX
  8
MY3DLAYER
10
134.88544423540844
20
64.55773338059485
30
0.0
 70
     32
  0
VERTEX
  8
MY3DLAYER
10
134.7355936016515
20
64.91950481294108
30
0.0
 70
     32
  0
VERTEX
  8
MY3DLAYER
10
134.49721566775466
20
65.2301649847209
30
0.0
 70
     32
  0
VERTEX
  8
MY3DLAYER
10
134.18655549597486
20
65.46854291861773
30
0.0
 70
     32
  0
VERTEX
  8
MY3DLAYER
10
133.8247840636286
20
65.61839355237468
30
0.0
 70
     32
  0
VERTEX
  8
MY3DLAYER
10
133.43655549597483
20
65.66950481294108
30
0.0
 70
     32
  0
VERTEX
  8
MY3DLAYER
10
133.04832692832105
20
65.61839355237468
30
0.0
 70
     32
  0
VERTEX
  8
MY3DLAYER
10
132.68655549597486
20
65.46854291861773
30
0.0
 70
     32
  0
VERTEX
  8
MY3DLAYER
10
132.375895324195
20
65.2301649847209
30
0.0
 70
     32
  0
VERTEX
  8
MY3DLAYER
10
132.1375173902982
20
64.91950481294108
30
0.0
 70
     32
  0
VERTEX
  8
MY3DLAYER
10
131.98766675654124
20
64.55773338059485
30
0.0
 70
     32
  0
VERTEX
  8
MY3DLAYER
10
131.93655549597483
20
64.16950481294108
30
0.0
 70
     32
  0
VERTEX
  8
MY3DLAYER
10
131.98766675654124
20
63.7812762452873
30
0.0
 70
     32
  0
VERTEX
  8
MY3DLAYER
10
132.1375173902982
20
63.419504812941085
30
0.0
 70
     32
  0
SEQEND
  0
POLYLINE
 8
Group#1
 66
     1
70
    8
 10
0.0
 20
 0.0
 30
0.0
  0
VERTEX
  8
MY3DLAYER
10
42.836555495974864
20
64.16950481294108
30
0.0
 70
     32
  0
VERTEX
  8
MY3DLAYER
10
42.887666756541265
20
63.7812762452873
30
0.0
 70
     32
  0
VERTEX
  8
MY3DLAYER
10
43.037517390298206
20
63.419504812941085
30
0.0
 70
     32
  0
VERTEX
  8
MY3DLAYER
10
43.27589532419505
20
63.108844641161255
30
0.0
 70
     32
  0
VERTEX
  8
MY3DLAYER
10
43.586555495974864
20
62.870466707264434
30
0.0
 70
     32
  0
VERTEX
  8
MY3DLAYER
10
43.94832692832108
20
62.72061607350748
30
0.0
 70
     32
  0
VERTEX
  8
MY3DLAYER
10
44.336555495974864
20
62.669504812941085
30
0.0
 70
     32
  0
VERTEX
  8
MY3DLAYER
10
44.72478406362864
20
62.72061607350748
30
0.0
 70
     32
  0
VERTEX
  8
MY3DLAYER
10
45.086555495974864
20
62.87046670726442
30
0.0
 70
     32
  0
VERTEX
  8
MY3DLAYER
10
45.39721566775468
20
63.108844641161255
30
0.0
 70
     32
  0
VERTEX
  8
MY3DLAYER
10
45.63559360165152
20
63.419504812941085
30
0.0
 70
     32
  0
VERTEX
  8
MY3DLAYER
10
45.78544423540846
20
63.7812762452873
30
0.0
 70
     32
  0
VERTEX
  8
MY3DLAYER
10
45.836555495974864
20
64.16950481294108
30
0.0
 70
     32
  0
VERTEX
  8
MY3DLAYER
10
45.78544423540847
20
64.55773338059485
30
0.0
 70
     32
  0
VERTEX
  8
MY3DLAYER
10
45.63559360165152
20
64.91950481294108
30
0.0
 70
     32
  0
VERTEX
  8
MY3DLAYER
10
45.39721566775468
20
65.2301649847209
30
0.0
 70
     32
  0
VERTEX
  8
MY3DLAYER
10
45.086555495974864
20
65.46854291861773
30
0.0
 70
     32
  0
VERTEX
  8
MY3DLAYER
10
44.72478406362864
20
65.61839355237468
30
0.0
 70
     32
  0
VERTEX
  8
MY3DLAYER
10
44.336555495974864
20
65.66950481294108
30
0.0
 70
     32
  0
VERTEX
  8
MY3DLAYER
10
43.94832692832109
20
65.61839355237468
30
0.0
 70
     32
  0
VERTEX
  8
MY3DLAYER
10
43.586555495974864
20
65.46854291861773
30
0.0
 70
     32
  0
VERTEX
  8
MY3DLAYER
10
43.27589532419505
20
65.2301649847209
30
0.0
 70
     32
  0
VERTEX
  8
MY3DLAYER
10
43.037517390298206
20
64.91950481294108
30
0.0
 70
     32
  0
VERTEX
  8
MY3DLAYER
10
42.887666756541265
20
64.55773338059485
30
0.0
 70
     32
  0
VERTEX
  8
MY3DLAYER
10
42.836555495974864
20
64.16950481294108
30
0.0
 70
     32
  0
SEQEND
  0
POLYLINE
 8
Group#1
 66
     1
70
    8
 10
0.0
 20
 0.0
 30
0.0
  0
VERTEX
  8
MY3DLAYER
10
82.43655549597486
20
62.669504812941085
30
0.0
 70
     32
  0
VERTEX
  8
MY3DLAYER
10
82.82478406362864
20
62.72061607350748
30
0.0
 70
     32
  0
VERTEX
  8
MY3DLAYER
10
83.18655549597487
20
62.87046670726442
30
0.0
 70
     32
  0
VERTEX
  8
MY3DLAYER
10
83.49721566775469
20
63.108844641161255
30
0.0
 70
     32
  0
VERTEX
  8
MY3DLAYER
10
83.73559360165152
20
63.419504812941085
30
0.0
 70
     32
  0
VERTEX
  8
MY3DLAYER
10
83.88544423540847
20
63.7812762452873
30
0.0
 70
     32
  0
VERTEX
  8
MY3DLAYER
10
83.93655549597486
20
64.16950481294108
30
0.0
 70
     32
  0
VERTEX
  8
MY3DLAYER
10
83.88544423540847
20
64.55773338059485
30
0.0
 70
     32
  0
VERTEX
  8
MY3DLAYER
10
83.73559360165152
20
64.91950481294108
30
0.0
 70
     32
  0
VERTEX
  8
MY3DLAYER
10
83.49721566775469
20
65.2301649847209
30
0.0
 70
     32
  0
VERTEX
  8
MY3DLAYER
10
83.18655549597487
20
65.46854291861773
30
0.0
 70
     32
  0
VERTEX
  8
MY3DLAYER
10
82.82478406362864
20
65.61839355237468
30
0.0
 70
     32
  0
VERTEX
  8
MY3DLAYER
10
82.43655549597486
20
65.66950481294108
30
0.0
 70
     32
  0
VERTEX
  8
MY3DLAYER
10
82.04832692832109
20
65.61839355237468
30
0.0
 70
     32
  0
VERTEX
  8
MY3DLAYER
10
81.68655549597487
20
65.46854291861773
30
0.0
 70
     32
  0
VERTEX
  8
MY3DLAYER
10
81.37589532419504
20
65.2301649847209
30
0.0
 70
     32
  0
VERTEX
  8
MY3DLAYER
10
81.13751739029821
20
64.91950481294108
30
0.0
 70
     32
  0
VERTEX
  8
MY3DLAYER
10
80.98766675654126
20
64.55773338059485
30
0.0
 70
     32
  0
VERTEX
  8
MY3DLAYER
10
80.93655549597486
20
64.16950481294108
30
0.0
 70
     32
  0
VERTEX
  8
MY3DLAYER
10
80.98766675654126
20
63.7812762452873
30
0.0
 70
     32
  0
VERTEX
  8
MY3DLAYER
10
81.13751739029821
20
63.419504812941085
30
0.0
 70
     32
  0
VERTEX
  8
MY3DLAYER
10
81.37589532419504
20
63.108844641161255
30
0.0
 70
     32
  0
VERTEX
  8
MY3DLAYER
10
81.68655549597487
20
62.870466707264434
30
0.0
 70
     32
  0
VERTEX
  8
MY3DLAYER
10
82.04832692832109
20
62.72061607350748
30
0.0
 70
     32
  0
VERTEX
  8
MY3DLAYER
10
82.43655549597486
20
62.669504812941085
30
0.0
 70
     32
  0
SEQEND
  0
POLYLINE
 8
Group#1
 66
     1
70
    8
 10
0.0
 20
 0.0
 30
0.0
  0
VERTEX
  8
MY3DLAYER
10
39.936555495974865
20
121.66950481294107
30
0.0
 70
     32
  0
VERTEX
  8
MY3DLAYER
10
39.868407148553004
20
122.18714290314611
30
0.0
 70
     32
  0
VERTEX
  8
MY3DLAYER
10
39.66860630354374
20
122.66950481294107
30
0.0
 70
     32
  0
VERTEX
  8
MY3DLAYER
10
39.350769058347964
20
123.08371837531416
30
0.0
 70
     32
  0
VERTEX
  8
MY3DLAYER
10
38.936555495974865
20
123.40155562050995
30
0.0
 70
     32
  0
VERTEX
  8
MY3DLAYER
10
38.454193586179905
20
123.60135646551922
30
0.0
 70
     32
  0
VERTEX
  8
MY3DLAYER
10
37.936555495974865
20
123.66950481294106
30
0.0
 70
     32
  0
VERTEX
  8
MY3DLAYER
10
37.418917405769825
20
123.60135646551922
30
0.0
 70
     32
  0
VERTEX
  8
MY3DLAYER
10
36.936555495974865
20
123.40155562050995
30
0.0
 70
     32
  0
VERTEX
  8
MY3DLAYER
10
36.522341933601766
20
123.08371837531416
30
0.0
 70
     32
  0
VERTEX
  8
MY3DLAYER
10
36.20450468840598
20
122.66950481294107
30
0.0
 70
     32
  0
VERTEX
  8
MY3DLAYER
10
36.004703843396726
20
122.18714290314611
30
0.0
 70
     32
  0
VERTEX
  8
MY3DLAYER
10
35.936555495974865
20
121.66950481294107
30
0.0
 70
     32
  0
VERTEX
  8
MY3DLAYER
10
36.004703843396726
20
121.15186672273602
30
0.0
 70
     32
  0
VERTEX
  8
MY3DLAYER
10
36.20450468840598
20
120.66950481294107
30
0.0
 70
     32
  0
VERTEX
  8
MY3DLAYER
10
36.522341933601766
20
120.25529125056796
30
0.0
 70
     32
  0
VERTEX
  8
MY3DLAYER
10
36.93655549597486
20
119.9374540053722
30
0.0
 70
     32
  0
VERTEX
  8
MY3DLAYER
10
37.41891740576982
20
119.73765316036292
30
0.0
 70
     32
  0
VERTEX
  8
MY3DLAYER
10
37.936555495974865
20
119.66950481294107
30
0.0
 70
     32
  0
VERTEX
  8
MY3DLAYER
10
38.454193586179905
20
119.73765316036292
30
0.0
 70
     32
  0
VERTEX
  8
MY3DLAYER
10
38.936555495974865
20
119.93745400537217
30
0.0
 70
     32
  0
VERTEX
  8
MY3DLAYER
10
39.350769058347964
20
120.25529125056796
30
0.0
 70
     32
  0
VERTEX
  8
MY3DLAYER
10
39.66860630354374
20
120.66950481294107
30
0.0
 70
     32
  0
VERTEX
  8
MY3DLAYER
10
39.868407148553004
20
121.15186672273602
30
0.0
 70
     32
  0
VERTEX
  8
MY3DLAYER
10
39.936555495974865
20
121.66950481294107
30
0.0
 70
     32
  0
SEQEND
  0
POLYLINE
 8
Group#1
 66
     1
70
    8
 10
0.0
 20
 0.0
 30
0.0
  0
VERTEX
  8
MY3DLAYER
10
179.92420505382646
20
121.44758312591551
30
0.0
 70
     32
  0
VERTEX
  8
MY3DLAYER
10
179.91391509663924
20
121.96958648459105
30
0.0
 70
     32
  0
VERTEX
  8
MY3DLAYER
10
179.768871350408
20
122.47113977325206
30
0.0
 70
     32
  0
VERTEX
  8
MY3DLAYER
10
179.49895830674228
20
122.91806296413226
30
0.0
 70
     32
  0
VERTEX
  8
MY3DLAYER
10
179.12257009351546
20
123.27989898034872
30
0.0
 70
     32
  0
VERTEX
  8
MY3DLAYER
10
178.66535694544805
20
123.53198929535851
30
0.0
 70
     32
  0
VERTEX
  8
MY3DLAYER
10
178.15847718300037
20
123.6571543707927
30
0.0
 70
     32
  0
VERTEX
  8
MY3DLAYER
10
177.63647382432484
20
123.64686441360548
30
0.0
 70
     32
  0
VERTEX
  8
MY3DLAYER
10
177.1349205356638
20
123.50182066737425
30
0.0
 70
     32
  0
VERTEX
  8
MY3DLAYER
10
176.68799734478364
20
123.23190762370852
30
0.0
 70
     32
  0
VERTEX
  8
MY3DLAYER
10
176.32616132856717
20
122.8555194104817
30
0.0
 70
     32
  0
VERTEX
  8
MY3DLAYER
10
176.0740710135574
20
122.39830626241428
30
0.0
 70
     32
  0
VERTEX
  8
MY3DLAYER
10
175.94890593812318
20
121.89142649996663
30
0.0
 70
     32
  0
VERTEX
  8
MY3DLAYER
10
175.95919589531042
20
121.36942314129108
30
0.0
 70
     32
  0
VERTEX
  8
MY3DLAYER
10
176.10423964154162
20
120.86786985263006
30
0.0
 70
     32
  0
VERTEX
  8
MY3DLAYER
10
176.37415268520738
20
120.42094666174987
30
0.0
 70
     32
  0
VERTEX
  8
MY3DLAYER
10
176.7505408984342
20
120.05911064553341
30
0.0
 70
     32
  0
VERTEX
  8
MY3DLAYER
10
177.2077540465016
20
119.80702033052363
30
0.0
 70
     32
  0
VERTEX
  8
MY3DLAYER
10
177.71463380894926
20
119.68185525508943
30
0.0
 70
     32
  0
VERTEX
  8
MY3DLAYER
10
178.23663716762482
20
119.69214521227664
30
0.0
 70
     32
  0
VERTEX
  8
MY3DLAYER
10
178.73819045628582
20
119.83718895850788
30
0.0
 70
     32
  0
VERTEX
  8
MY3DLAYER
10
179.18511364716602
20
120.1071020021736
30
0.0
 70
     32
  0
VERTEX
  8
MY3DLAYER
10
179.54694966338246
20
120.48349021540044
30
0.0
 70
     32
  0
VERTEX
  8
MY3DLAYER
10
179.79903997839227
20
120.94070336346785
30
0.0
 70
     32
  0
VERTEX
  8
MY3DLAYER
10
179.92420505382646
20
121.44758312591551
30
0.0
 70
     32
  0
SEQEND
  0
POLYLINE
 8
Group#1
 66
     1
70
    8
 10
0.0
 20
 0.0
 30
0.0
  0
VERTEX
  8
MY3DLAYER
10
176.0047038433967
20
4.937142903146112
30
0.0
 70
     32
  0
VERTEX
  8
MY3DLAYER
10
175.93655549597486
20
4.419504812941073
30
0.0
 70
     32
  0
VERTEX
  8
MY3DLAYER
10
176.0047038433967
20
3.901866722736033
30
0.0
 70
     32
  0
VERTEX
  8
MY3DLAYER
10
176.204504688406
20
3.4195048129410743
30
0.0
 70
     32
  0
VERTEX
  8
MY3DLAYER
10
176.52234193360175
20
3.00529125056798
30
0.0
 70
     32
  0
VERTEX
  8
MY3DLAYER
10
176.93655549597486
20
2.687454005372197
30
0.0
 70
     32
  0
VERTEX
  8
MY3DLAYER
10
177.4189174057698
20
2.4876531603629397
30
0.0
 70
     32
  0
VERTEX
  8
MY3DLAYER
10
177.93655549597486
20
2.419504812941076
30
0.0
 70
     32
  0
VERTEX
  8
MY3DLAYER
10
178.45419358617988
20
2.487653160362937
30
0.0
 70
     32
  0
VERTEX
  8
MY3DLAYER
10
178.93655549597483
20
2.687454005372197
30
0.0
 70
     32
  0
VERTEX
  8
MY3DLAYER
10
179.35076905834794
20
3.00529125056798
30
0.0
 70
     32
  0
VERTEX
  8
MY3DLAYER
10
179.66860630354373
20
3.4195048129410717
30
0.0
 70
     32
  0
VERTEX
  8
MY3DLAYER
10
179.86840714855296
20
3.9018667227360297
30
0.0
 70
     32
  0
VERTEX
  8
MY3DLAYER
10
179.93655549597483
20
4.419504812941073
30
0.0
 70
     32
  0
VERTEX
  8
MY3DLAYER
10
179.868407148553
20
4.937142903146112
30
0.0
 70
     32
  0
VERTEX
  8
MY3DLAYER
10
179.66860630354373
20
5.419504812941071
30
0.0
 70
     32
  0
VERTEX
  8
MY3DLAYER
10
179.35076905834794
20
5.833718375314163
30
0.0
 70
     32
  0
VERTEX
  8
MY3DLAYER
10
178.93655549597483
20
6.151555620509946
30
0.0
 70
     32
  0
VERTEX
  8
MY3DLAYER
10
178.45419358617988
20
6.351356465519205
30
0.0
 70
     32
  0
VERTEX
  8
MY3DLAYER
10
177.93655549597486
20
6.419504812941069
30
0.0
 70
     32
  0
VERTEX
  8
MY3DLAYER
10
177.4189174057698
20
6.351356465519205
30
0.0
 70
     32
  0
VERTEX
  8
MY3DLAYER
10
176.93655549597486
20
6.151555620509946
30
0.0
 70
     32
  0
VERTEX
  8
MY3DLAYER
10
176.52234193360175
20
5.833718375314166
30
0.0
 70
     32
  0
VERTEX
  8
MY3DLAYER
10
176.204504688406
20
5.419504812941071
30
0.0
 70
     32
  0
VERTEX
  8
MY3DLAYER
10
176.0047038433967
20
4.937142903146112
30
0.0
 70
     32
  0
SEQEND
  0
POLYLINE
 8
Group#1
 66
     1
70
    8
 10
0.0
 20
 0.0
 30
0.0
  0
VERTEX
  8
MY3DLAYER
10
39.83196294077313
20
3.781201892531553
30
0.0
 70
     32
  0
VERTEX
  8
MY3DLAYER
10
39.932583450592624
20
4.2935190820646785
30
0.0
 70
     32
  0
VERTEX
  8
MY3DLAYER
10
39.89717795389707
20
4.814421990955765
30
0.0
 70
     32
  0
VERTEX
  8
MY3DLAYER
10
39.72815927677593
20
5.308411946796644
30
0.0
 70
     32
  0
VERTEX
  8
MY3DLAYER
10
39.43704576275844
20
5.741824350453762
30
0.0
 70
     32
  0
VERTEX
  8
MY3DLAYER
10
39.043676316737056
20
6.085122862865748
30
0.0
 70
     32
  0
VERTEX
  8
MY3DLAYER
10
38.57485841638439
20
6.314912257739337
30
0.0
 70
     32
  0
VERTEX
  8
MY3DLAYER
10
38.06254122685126
20
6.415532767558832
30
0.0
 70
     32
  0
VERTEX
  8
MY3DLAYER
10
37.54163831796017
20
6.380127270863282
30
0.0
 70
     32
  0
VERTEX
  8
MY3DLAYER
10
37.04764836211929
20
6.211108593742145
30
0.0
 70
     32
  0
VERTEX
  8
MY3DLAYER
10
36.614235958462174
20
5.919995079724648
30
0.0
 70
     32
  0
VERTEX
  8
MY3DLAYER
10
36.27093744605019
20
5.526625633703261
30
0.0
 70
     32
  0
VERTEX
  8
MY3DLAYER
10
36.0411480511766
20
5.057807733350595
30
0.0
 70
     32
  0
VERTEX
  8
MY3DLAYER
10
35.940527541357106
20
4.545490543817472
30
0.0
 70
     32
  0
VERTEX
  8
MY3DLAYER
10
35.97593303805265
20
4.0245876349263865
30
0.0
 70
     32
  0
VERTEX
  8
MY3DLAYER
10
36.1449517151738
20
3.530597679085507
30
0.0
 70
     32
  0
VERTEX
  8
MY3DLAYER
10
36.43606522919129
20
3.097185275428388
30
0.0
 70
     32
  0
VERTEX
  8
MY3DLAYER
10
36.829434675212674
20
2.7538867630164034
30
0.0
 70
     32
  0
VERTEX
  8
MY3DLAYER
10
37.29825257556534
20
2.524097368142814
30
0.0
 70
     32
  0
VERTEX
  8
MY3DLAYER
10
37.81056976509847
20
2.4234768583233186
30
0.0
 70
     32
  0
VERTEX
  8
MY3DLAYER
10
38.33147267398956
20
2.4588823550188685
30
0.0
 70
     32
  0
VERTEX
  8
MY3DLAYER
10
38.82546262983043
20
2.6279010321400063
30
0.0
 70
     32
  0
VERTEX
  8
MY3DLAYER
10
39.25887503348755
20
2.919014546157503
30
0.0
 70
     32
  0
VERTEX
  8
MY3DLAYER
10
39.60217354589954
20
3.3123839921788902
30
0.0
 70
     32
  0
VERTEX
  8
MY3DLAYER
10
39.83196294077313
20
3.781201892531553
30
0.0
 70
     32
  0
SEQEND
  0
POLYLINE
 8
Group#1
 66
     1
70
    8
 10
0.0
 20
 0.0
 30
0.0
  0
VERTEX
  8
MY3DLAYER
10
77.93655549597487
20
89.16950481294108
30
0.0
 70
     32
  0
VERTEX
  8
MY3DLAYER
10
77.93655549597487
20
109.16950481294108
30
0.0
 70
     32
  0
VERTEX
  8
MY3DLAYER
10
67.93655549597487
20
109.16950481294108
30
0.0
 70
     32
  0
VERTEX
  8
MY3DLAYER
10
67.93655549597487
20
89.16950481294108
30
0.0
 70
     32
  0
VERTEX
  8
MY3DLAYER
10
77.93655549597487
20
89.16950481294108
30
0.0
 70
     32
  0
SEQEND
  0
POLYLINE
 8
Group#1
 66
     1
70
    8
 10
0.0
 20
 0.0
 30
0.0
  0
VERTEX
  8
MY3DLAYER
10
147.93655549597483
20
109.16950481294108
30
0.0
 70
     32
  0
VERTEX
  8
MY3DLAYER
10
137.93655549597483
20
109.16950481294108
30
0.0
 70
     32
  0
VERTEX
  8
MY3DLAYER
10
137.93655549597483
20
89.16950481294108
30
0.0
 70
     32
  0
VERTEX
  8
MY3DLAYER
10
147.93655549597483
20
89.16950481294108
30
0.0
 70
     32
  0
VERTEX
  8
MY3DLAYER
10
147.93655549597483
20
109.16950481294108
30
0.0
 70
     32
  0
SEQEND
  0
POLYLINE
 8
Group#1
 66
     1
70
    8
 10
0.0
 20
 0.0
 30
0.0
  0
VERTEX
  8
MY3DLAYER
10
142.93655549597486
20
24.16950481294107
30
0.0
 70
     32
  0
VERTEX
  8
MY3DLAYER
10
142.93655549597486
20
27.169504812941064
30
0.0
 70
     32
  0
VERTEX
  8
MY3DLAYER
10
72.93655549597489
20
27.169504812941064
30
0.0
 70
     32
  0
VERTEX
  8
MY3DLAYER
10
72.93655549597489
20
24.16950481294107
30
0.0
 70
     32
  0
VERTEX
  8
MY3DLAYER
10
142.93655549597486
20
24.16950481294107
30
0.0
 70
     32
  0
SEQEND
  0
POLYLINE
 8
Group#2
 66
     1
70
    8
 10
0.0
 20
 0.0
 30
0.0
  0
VERTEX
  8
MY3DLAYER
10
392.44338349597484
20
-13.080495187058915
30
0.0
 70
     32
  0
VERTEX
  8
MY3DLAYER
10
218.4433834959748
20
-13.080495187058924
30
0.0
 70
     32
  0
VERTEX
  8
MY3DLAYER
10
218.05180491931466
20
-13.054829771180355
30
0.0
 70
     32
  0
VERTEX
  8
MY3DLAYER
10
217.66692636066725
20
-12.978272665926129
30
0.0
 70
     32
  0
VERTEX
  8
MY3DLAYER
10
217.29533319887955
20
-12.852133784592782
30
0.0
 70
     32
  0
VERTEX
  8
MY3DLAYER
10
216.94338349597484
20
-12.67857139841224
30
0.0
 70
     32
  0
VERTEX
  8
MY3DLAYER
10
216.61709920894867
20
-12.460555207932629
30
0.0
 70
     32
  0
VERTEX
  8
MY3DLAYER
10
216.32206315241518
20
-12.201815530618566
30
0.0
 70
     32
  0
VERTEX
  8
MY3DLAYER
10
216.06332347510113
20
-11.906779474085084
30
0.0
 70
     32
  0
VERTEX
  8
MY3DLAYER
10
215.84530728462153
20
-11.580495187058924
30
0.0
 70
     32
  0
VERTEX
  8
MY3DLAYER
10
215.67174489844095
20
-11.228545484154193
30
0.0
 70
     32
  0
VERTEX
  8
MY3DLAYER
10
215.54560601710762
20
-10.856952322366485
30
0.0
 70
     32
  0
VERTEX
  8
MY3DLAYER
10
215.4690489118534
20
-10.472073763719079
30
0.0
 70
     32
  0
VERTEX
  8
MY3DLAYER
10
215.4433834959748
20
-10.080495187058924
30
0.0
 70
     32
  0
VERTEX
  8
MY3DLAYER
10
215.4433834959748
20
24.169504812941074
30
0.0
 70
     32
  0
VERTEX
  8
MY3DLAYER
10
235.44338349597484
20
24.169504812941074
30
0.0
 70
     32
  0
VERTEX
  8
MY3DLAYER
10
235.44338349597484
20
104.16950481294107
30
0.0
 70
     32
  0
VERTEX
  8
MY3DLAYER
10
218.4433834959748
20
104.16950481294107
30
0.0
 70
     32
  0
VERTEX
  8
MY3DLAYER
10
218.05180491931466
20
104.19517022881965
30
0.0
 70
     32
  0
VERTEX
  8
MY3DLAYER
10
217.66692636066725
20
104.27172733407386
30
0.0
 70
     32
  0
VERTEX
  8
MY3DLAYER
10
217.29533319887955
20
104.3978662154072
30
0.0
 70
     32
  0
VERTEX
  8
MY3DLAYER
10
216.94338349597479
20
104.57142860158777
30
0.0
 70
     32
  0
VERTEX
  8
MY3DLAYER
10
216.61709920894867
20
104.78944479206739
30
0.0
 70
     32
  0
VERTEX
  8
MY3DLAYER
10
216.32206315241518
20
105.04818446938143
30
0.0
 70
     32
  0
VERTEX
  8
MY3DLAYER
10
216.06332347510113
20
105.34322052591492
30
0.0
 70
     32
  0
VERTEX
  8
MY3DLAYER
10
215.84530728462153
20
105.66950481294107
30
0.0
 70
     32
  0
VERTEX
  8
MY3DLAYER
10
215.67174489844095
20
106.0214545158458
30
0.0
 70
     32
  0
VERTEX
  8
MY3DLAYER
10
215.54560601710762
20
106.39304767763352
30
0.0
 70
     32
  0
VERTEX
  8
MY3DLAYER
10
215.4690489118534
20
106.77792623628092
30
0.0
 70
     32
  0
VERTEX
  8
MY3DLAYER
10
215.4433834959748
20
107.16950481294107
30
0.0
 70
     32
  0
VERTEX
  8
MY3DLAYER
10
215.4433834959748
20
140.91950481294106
30
0.0
 70
     32
  0
VERTEX
  8
MY3DLAYER
10
215.4690489118534
20
141.31108338960124
30
0.0
 70
     32
  0
VERTEX
  8
MY3DLAYER
10
215.54560601710762
20
141.69596194824862
30
0.0
 70
     32
  0
VERTEX
  8
MY3DLAYER
10
215.67174489844095
20
142.06755511003632
30
0.0
 70
     32
  0
VERTEX
  8
MY3DLAYER
10
215.84530728462153
20
142.41950481294108
30
0.0
 70
     32
  0
VERTEX
  8
MY3DLAYER
10
216.06332347510113
20
142.74578909996725
30
0.0
 70
     32
  0
VERTEX
  8
MY3DLAYER
10
216.32206315241518
20
143.04082515650072
30
0.0
 70
     32
  0
VERTEX
  8
MY3DLAYER
10
216.61709920894867
20
143.29956483381477
30
0.0
 70
     32
  0
VERTEX
  8
MY3DLAYER
10
216.94338349597484
20
143.5175810242944
30
0.0
 70
     32
  0
VERTEX
  8
MY3DLAYER
10
217.29533319887955
20
143.69114341047495
30
0.0
 70
     32
  0
VERTEX
  8
MY3DLAYER
10
217.66692636066725
20
143.81728229180828
30
0.0
 70
     32
  0
VERTEX
  8
MY3DLAYER
10
218.0518049193147
20
143.89383939706252
30
0.0
 70
     32
  0
VERTEX
  8
MY3DLAYER
10
218.4433834959748
20
143.9195048129411
30
0.0
 70
     32
  0
VERTEX
  8
MY3DLAYER
10
392.4433834959748
20
143.91950481294108
30
0.0
 70
     32
  0
VERTEX
  8
MY3DLAYER
10
392.83496207263494
20
143.8938393970625
30
0.0
 70
     32
  0
VERTEX
  8
MY3DLAYER
10
393.21984063128235
20
143.81728229180828
30
0.0
 70
     32
  0
VERTEX
  8
MY3DLAYER
10
393.59143379307005
20
143.69114341047495
30
0.0
 70
     32
  0
VERTEX
  8
MY3DLAYER
10
393.9433834959748
20
143.5175810242944
30
0.0
 70
     32
  0
VERTEX
  8
MY3DLAYER
10
394.26966778300095
20
143.29956483381477
30
0.0
 70
     32
  0
VERTEX
  8
MY3DLAYER
10
394.56470383953445
20
143.04082515650072
30
0.0
 70
     32
  0
VERTEX
  8
MY3DLAYER
10
394.8234435168485
20
142.74578909996725
30
0.0
 70
     32
  0
VERTEX
  8
MY3DLAYER
10
395.0414597073281
20
142.41950481294108
30
0.0
 70
     32
  0
VERTEX
  8
MY3DLAYER
10
395.21502209350865
20
142.06755511003632
30
0.0
 70
     32
  0
VERTEX
  8
MY3DLAYER
10
395.341160974842
20
141.69596194824862
30
0.0
 70
     32
  0
VERTEX
  8
MY3DLAYER
10
395.4177180800962
20
141.31108338960124
30
0.0
 70
     32
  0
VERTEX
  8
MY3DLAYER
10
395.4433834959748
20
140.91950481294106
30
0.0
 70
     32
  0
VERTEX
  8
MY3DLAYER
10
395.4433834959748
20
107.16950481294107
30
0.0
 70
     32
  0
VERTEX
  8
MY3DLAYER
10
395.4177180800962
20
106.77792623628092
30
0.0
 70
     32
  0
VERTEX
  8
MY3DLAYER
10
395.341160974842
20
106.39304767763352
30
0.0
 70
     32
  0
VERTEX
  8
MY3DLAYER
10
395.21502209350865
20
106.0214545158458
30
0.0
 70
     32
  0
VERTEX
  8
MY3DLAYER
10
395.0414597073281
20
105.66950481294107
30
0.0
 70
     32
  0
VERTEX
  8
MY3DLAYER
10
394.8234435168485
20
105.34322052591492
30
0.0
 70
     32
  0
VERTEX
  8
MY3DLAYER
10
394.56470383953445
20
105.04818446938143
30
0.0
 70
     32
  0
VERTEX
  8
MY3DLAYER
10
394.26966778300095
20
104.78944479206739
30
0.0
 70
     32
  0
VERTEX
  8
MY3DLAYER
10
393.9433834959748
20
104.57142860158777
30
0.0
 70
     32
  0
VERTEX
  8
MY3DLAYER
10
393.5914337930701
20
104.3978662154072
30
0.0
 70
     32
  0
VERTEX
  8
MY3DLAYER
10
393.21984063128235
20
104.27172733407386
30
0.0
 70
     32
  0
VERTEX
  8
MY3DLAYER
10
392.83496207263494
20
104.19517022881965
30
0.0
 70
     32
  0
VERTEX
  8
MY3DLAYER
10
392.44338349597484
20
104.16950481294107
30
0.0
 70
     32
  0
VERTEX
  8
MY3DLAYER
10
375.4433834959748
20
104.16950481294107
30
0.0
 70
     32
  0
VERTEX
  8
MY3DLAYER
10
375.44338349597473
20
24.169504812941074
30
0.0
 70
     32
  0
VERTEX
  8
MY3DLAYER
10
395.4433834959748
20
24.169504812941074
30
0.0
 70
     32
  0
VERTEX
  8
MY3DLAYER
10
395.4433834959748
20
-10.080495187058924
30
0.0
 70
     32
  0
VERTEX
  8
MY3DLAYER
10
395.4177180800962
20
-10.472073763719077
30
0.0
 70
     32
  0
VERTEX
  8
MY3DLAYER
10
395.341160974842
20
-10.856952322366483
30
0.0
 70
     32
  0
VERTEX
  8
MY3DLAYER
10
395.21502209350865
20
-11.228545484154191
30
0.0
 70
     32
  0
VERTEX
  8
MY3DLAYER
10
395.0414597073281
20
-11.580495187058919
30
0.0
 70
     32
  0
VERTEX
  8
MY3DLAYER
10
394.8234435168485
20
-11.90677947408508
30
0.0
 70
     32
  0
VERTEX
  8
MY3DLAYER
10
394.56470383953445
20
-12.20181553061856
30
0.0
 70
     32
  0
VERTEX
  8
MY3DLAYER
10
394.26966778300095
20
-12.460555207932623
30
0.0
 70
     32
  0
VERTEX
  8
MY3DLAYER
10
393.9433834959748
20
-12.678571398412233
30
0.0
 70
     32
  0
VERTEX
  8
MY3DLAYER
10
393.5914337930701
20
-12.852133784592777
30
0.0
 70
     32
  0
VERTEX
  8
MY3DLAYER
10
393.21984063128235
20
-12.97827266592612
30
0.0
 70
     32
  0
VERTEX
  8
MY3DLAYER
10
392.83496207263494
20
-13.054829771180346
30
0.0
 70
     32
  0
VERTEX
  8
MY3DLAYER
10
392.44338349597484
20
-13.080495187058915
30
0.0
 70
     32
  0
SEQEND
  0
POLYLINE
 8
Group#2
 66
     1
70
    8
 10
0.0
 20
 0.0
 30
0.0
  0
VERTEX
  8
MY3DLAYER
10
237.33879094077307
20
3.781201892531553
30
0.0
 70
     32
  0
VERTEX
  8
MY3DLAYER
10
237.4394114505926
20
4.2935190820646785
30
0.0
 70
     32
  0
VERTEX
  8
MY3DLAYER
10
237.40400595389704
20
4.814421990955765
30
0.0
 70
     32
  0
VERTEX
  8
MY3DLAYER
10
237.2349872767759
20
5.308411946796644
30
0.0
 70
     32
  0
VERTEX
  8
MY3DLAYER
10
236.94387376275841
20
5.741824350453762
30
0.0
 70
     32
  0
VERTEX
  8
MY3DLAYER
10
236.55050431673703
20
6.085122862865748
30
0.0
 70
     32
  0
VERTEX
  8
MY3DLAYER
10
236.08168641638434
20
6.314912257739337
30
0.0
 70
     32
  0
VERTEX
  8
MY3DLAYER
10
235.56936922685122
20
6.415532767558832
30
0.0
 70
     32
  0
VERTEX
  8
MY3DLAYER
10
235.04846631796013
20
6.380127270863282
30
0.0
 70
     32
  0
VERTEX
  8
MY3DLAYER
10
234.55447636211926
20
6.211108593742145
30
0.0
 70
     32
  0
VERTEX
  8
MY3DLAYER
10
234.12106395846212
20
5.919995079724648
30
0.0
 70
     32
  0
VERTEX
  8
MY3DLAYER
10
233.77776544605015
20
5.526625633703261
30
0.0
 70
     32
  0
VERTEX
  8
MY3DLAYER
10
233.54797605117656
20
5.057807733350595
30
0.0
 70
     32
  0
VERTEX
  8
MY3DLAYER
10
233.44735554135707
20
4.545490543817472
30
0.0
 70
     32
  0
VERTEX
  8
MY3DLAYER
10
233.48276103805262
20
4.0245876349263865
30
0.0
 70
     32
  0
VERTEX
  8
MY3DLAYER
10
233.65177971517377
20
3.530597679085507
30
0.0
 70
     32
  0
VERTEX
  8
MY3DLAYER
10
233.94289322919124
20
3.097185275428388
30
0.0
 70
     32
  0
VERTEX
  8
MY3DLAYER
10
234.33626267521265
20
2.7538867630164034
30
0.0
 70
     32
  0
VERTEX
  8
MY3DLAYER
10
234.8050805755653
20
2.524097368142814
30
0.0
 70
     32
  0
VERTEX
  8
MY3DLAYER
10
235.31739776509843
20
2.4234768583233186
30
0.0
 70
     32
  0
VERTEX
  8
MY3DLAYER
10
235.83830067398952
20
2.4588823550188685
30
0.0
 70
     32
  0
VERTEX
  8
MY3DLAYER
10
236.3322906298304
20
2.6279010321400063
30
0.0
 70
     32
  0
VERTEX
  8
MY3DLAYER
10
236.76570303348754
20
2.919014546157503
30
0.0
 70
     32
  0
VERTEX
  8
MY3DLAYER
10
237.1090015458995
20
3.3123839921788902
30
0.0
 70
     32
  0
VERTEX
  8
MY3DLAYER
10
237.33879094077307
20
3.781201892531553
30
0.0
 70
     32
  0
SEQEND
  0
POLYLINE
 8
Group#2
 66
     1
70
    8
 10
0.0
 20
 0.0
 30
0.0
  0
VERTEX
  8
MY3DLAYER
10
373.51153184339665
20
4.937142903146112
30
0.0
 70
     32
  0
VERTEX
  8
MY3DLAYER
10
373.4433834959748
20
4.419504812941073
30
0.0
 70
     32
  0
VERTEX
  8
MY3DLAYER
10
373.51153184339665
20
3.901866722736033
30
0.0
 70
     32
  0
VERTEX
  8
MY3DLAYER
10
373.71133268840595
20
3.4195048129410743
30
0.0
 70
     32
  0
VERTEX
  8
MY3DLAYER
10
374.0291699336017
20
3.00529125056798
30
0.0
 70
     32
  0
VERTEX
  8
MY3DLAYER
10
374.4433834959748
20
2.687454005372197
30
0.0
 70
     32
  0
VERTEX
  8
MY3DLAYER
10
374.92574540576976
20
2.4876531603629397
30
0.0
 70
     32
  0
VERTEX
  8
MY3DLAYER
10
375.4433834959748
20
2.419504812941076
30
0.0
 70
     32
  0
VERTEX
  8
MY3DLAYER
10
375.9610215861798
20
2.487653160362937
30
0.0
 70
     32
  0
VERTEX
  8
MY3DLAYER
10
376.4433834959748
20
2.687454005372197
30
0.0
 70
     32
  0
VERTEX
  8
MY3DLAYER
10
376.8575970583479
20
3.00529125056798
30
0.0
 70
     32
  0
VERTEX
  8
MY3DLAYER
10
377.1754343035437
20
3.4195048129410717
30
0.0
 70
     32
  0
VERTEX
  8
MY3DLAYER
10
377.3752351485529
20
3.9018667227360297
30
0.0
 70
     32
  0
VERTEX
  8
MY3DLAYER
10
377.4433834959748
20
4.419504812941073
30
0.0
 70
     32
  0
VERTEX
  8
MY3DLAYER
10
377.3752351485529
20
4.937142903146112
30
0.0
 70
     32
  0
VERTEX
  8
MY3DLAYER
10
377.1754343035437
20
5.419504812941071
30
0.0
 70
     32
  0
VERTEX
  8
MY3DLAYER
10
376.8575970583479
20
5.833718375314163
30
0.0
 70
     32
  0
VERTEX
  8
MY3DLAYER
10
376.4433834959748
20
6.151555620509946
30
0.0
 70
     32
  0
VERTEX
  8
MY3DLAYER
10
375.9610215861798
20
6.351356465519205
30
0.0
 70
     32
  0
VERTEX
  8
MY3DLAYER
10
375.4433834959748
20
6.419504812941069
30
0.0
 70
     32
  0
VERTEX
  8
MY3DLAYER
10
374.92574540576976
20
6.351356465519205
30
0.0
 70
     32
  0
VERTEX
  8
MY3DLAYER
10
374.4433834959748
20
6.151555620509946
30
0.0
 70
     32
  0
VERTEX
  8
MY3DLAYER
10
374.0291699336017
20
5.833718375314166
30
0.0
 70
     32
  0
VERTEX
  8
MY3DLAYER
10
373.71133268840595
20
5.419504812941071
30
0.0
 70
     32
  0
VERTEX
  8
MY3DLAYER
10
373.51153184339665
20
4.937142903146112
30
0.0
 70
     32
  0
SEQEND
  0
POLYLINE
 8
Group#2
 66
     1
70
    8
 10
0.0
 20
 0.0
 30
0.0
  0
VERTEX
  8
MY3DLAYER
10
377.4310330538264
20
121.44758312591551
30
0.0
 70
     32
  0
VERTEX
  8
MY3DLAYER
10
377.42074309663917
20
121.96958648459105
30
0.0
 70
     32
  0
VERTEX
  8
MY3DLAYER
10
377.275699350408
20
122.47113977325206
30
0.0
 70
     32
  0
VERTEX
  8
MY3DLAYER
10
377.00578630674227
20
122.91806296413226
30
0.0
 70
     32
  0
VERTEX
  8
MY3DLAYER
10
376.6293980935154
20
123.27989898034872
30
0.0
 70
     32
  0
VERTEX
  8
MY3DLAYER
10
376.172184945448
20
123.53198929535851
30
0.0
 70
     32
  0
VERTEX
  8
MY3DLAYER
10
375.6653051830003
20
123.6571543707927
30
0.0
 70
     32
  0
VERTEX
  8
MY3DLAYER
10
375.1433018243248
20
123.64686441360548
30
0.0
 70
     32
  0
VERTEX
  8
MY3DLAYER
10
374.64174853566374
20
123.50182066737425
30
0.0
 70
     32
  0
VERTEX
  8
MY3DLAYER
10
374.1948253447836
20
123.23190762370852
30
0.0
 70
     32
  0
VERTEX
  8
MY3DLAYER
10
373.8329893285671
20
122.8555194104817
30
0.0
 70
     32
  0
VERTEX
  8
MY3DLAYER
10
373.5808990135573
20
122.39830626241428
30
0.0
 70
     32
  0
VERTEX
  8
MY3DLAYER
10
373.45573393812316
20
121.89142649996663
30
0.0
 70
     32
  0
VERTEX
  8
MY3DLAYER
10
373.46602389531034
20
121.36942314129108
30
0.0
 70
     32
  0
VERTEX
  8
MY3DLAYER
10
373.6110676415416
20
120.86786985263006
30
0.0
 70
     32
  0
VERTEX
  8
MY3DLAYER
10
373.88098068520736
20
120.42094666174987
30
0.0
 70
     32
  0
VERTEX
  8
MY3DLAYER
10
374.25736889843415
20
120.05911064553341
30
0.0
 70
     32
  0
VERTEX
  8
MY3DLAYER
10
374.71458204650156
20
119.80702033052363
30
0.0
 70
     32
  0
VERTEX
  8
MY3DLAYER
10
375.2214618089492
20
119.68185525508943
30
0.0
 70
     32
  0
VERTEX
  8
MY3DLAYER
10
375.7434651676248
20
119.69214521227664
30
0.0
 70
     32
  0
VERTEX
  8
MY3DLAYER
10
376.2450184562858
20
119.83718895850788
30
0.0
 70
     32
  0
VERTEX
  8
MY3DLAYER
10
376.691941647166
20
120.1071020021736
30
0.0
 70
     32
  0
VERTEX
  8
MY3DLAYER
10
377.05377766338245
20
120.48349021540044
30
0.0
 70
     32
  0
VERTEX
  8
MY3DLAYER
10
377.3058679783922
20
120.94070336346785
30
0.0
 70
     32
  0
VERTEX
  8
MY3DLAYER
10
377.4310330538264
20
121.44758312591551
30
0.0
 70
     32
  0
SEQEND
  0
POLYLINE
 8
Group#2
 66
     1
70
    8
 10
0.0
 20
 0.0
 30
0.0
  0
VERTEX
  8
MY3DLAYER
10
237.4433834959748
20
121.66950481294107
30
0.0
 70
     32
  0
VERTEX
  8
MY3DLAYER
10
237.37523514855295
20
122.18714290314611
30
0.0
 70
     32
  0
VERTEX
  8
MY3DLAYER
10
237.1754343035437
20
122.66950481294107
30
0.0
 70
     32
  0
VERTEX
  8
MY3DLAYER
10
236.85759705834792
20
123.08371837531416
30
0.0
 70
     32
  0
VERTEX
  8
MY3DLAYER
10
236.44338349597484
20
123.40155562050995
30
0.0
 70
     32
  0
VERTEX
  8
MY3DLAYER
10
235.96102158617987
20
123.60135646551922
30
0.0
 70
     32
  0
VERTEX
  8
MY3DLAYER
10
235.44338349597484
20
123.66950481294106
30
0.0
 70
     32
  0
VERTEX
  8
MY3DLAYER
10
234.92574540576976
20
123.60135646551922
30
0.0
 70
     32
  0
VERTEX
  8
MY3DLAYER
10
234.44338349597484
20
123.40155562050995
30
0.0
 70
     32
  0
VERTEX
  8
MY3DLAYER
10
234.02916993360174
20
123.08371837531416
30
0.0
 70
     32
  0
VERTEX
  8
MY3DLAYER
10
233.71133268840597
20
122.66950481294107
30
0.0
 70
     32
  0
VERTEX
  8
MY3DLAYER
10
233.51153184339665
20
122.18714290314611
30
0.0
 70
     32
  0
VERTEX
  8
MY3DLAYER
10
233.44338349597484
20
121.66950481294107
30
0.0
 70
     32
  0
VERTEX
  8
MY3DLAYER
10
233.51153184339665
20
121.15186672273602
30
0.0
 70
     32
  0
VERTEX
  8
MY3DLAYER
10
233.71133268840597
20
120.66950481294107
30
0.0
 70
     32
  0
VERTEX
  8
MY3DLAYER
10
234.02916993360174
20
120.25529125056796
30
0.0
 70
     32
  0
VERTEX
  8
MY3DLAYER
10
234.44338349597484
20
119.9374540053722
30
0.0
 70
     32
  0
VERTEX
  8
MY3DLAYER
10
234.92574540576976
20
119.73765316036292
30
0.0
 70
     32
  0
VERTEX
  8
MY3DLAYER
10
235.44338349597484
20
119.66950481294107
30
0.0
 70
     32
  0
VERTEX
  8
MY3DLAYER
10
235.96102158617987
20
119.73765316036292
30
0.0
 70
     32
  0
VERTEX
  8
MY3DLAYER
10
236.44338349597484
20
119.93745400537217
30
0.0
 70
     32
  0
VERTEX
  8
MY3DLAYER
10
236.85759705834792
20
120.25529125056796
30
0.0
 70
     32
  0
VERTEX
  8
MY3DLAYER
10
237.1754343035437
20
120.66950481294107
30
0.0
 70
     32
  0
VERTEX
  8
MY3DLAYER
10
237.37523514855295
20
121.15186672273602
30
0.0
 70
     32
  0
VERTEX
  8
MY3DLAYER
10
237.4433834959748
20
121.66950481294107
30
0.0
 70
     32
  0
SEQEND
  0
POLYLINE
 8
Group#2
 66
     1
70
    8
 10
0.0
 20
 0.0
 30
0.0
  0
VERTEX
  8
MY3DLAYER
10
380.4433834959748
20
138.91950481294108
30
0.0
 70
     32
  0
VERTEX
  8
MY3DLAYER
10
380.4433834959748
20
128.9195048129411
30
0.0
 70
     32
  0
VERTEX
  8
MY3DLAYER
10
383.4433834959748
20
128.9195048129411
30
0.0
 70
     32
  0
VERTEX
  8
MY3DLAYER
10
383.4433834959748
20
138.91950481294108
30
0.0
 70
     32
  0
VERTEX
  8
MY3DLAYER
10
380.4433834959748
20
138.91950481294108
30
0.0
 70
     32
  0
SEQEND
  0
POLYLINE
 8
Group#2
 66
     1
70
    8
 10
0.0
 20
 0.0
 30
0.0
  0
VERTEX
  8
MY3DLAYER
10
383.4433834959748
20
109.16950481294107
30
0.0
 70
     32
  0
VERTEX
  8
MY3DLAYER
10
383.4433834959748
20
119.16950481294104
30
0.0
 70
     32
  0
VERTEX
  8
MY3DLAYER
10
380.4433834959748
20
119.16950481294104
30
0.0
 70
     32
  0
VERTEX
  8
MY3DLAYER
10
380.4433834959748
20
109.16950481294107
30
0.0
 70
     32
  0
VERTEX
  8
MY3DLAYER
10
383.4433834959748
20
109.16950481294107
30
0.0
 70
     32
  0
SEQEND
  0
POLYLINE
 8
Group#2
 66
     1
70
    8
 10
0.0
 20
 0.0
 30
0.0
  0
VERTEX
  8
MY3DLAYER
10
230.4433834959749
20
138.91950481294108
30
0.0
 70
     32
  0
VERTEX
  8
MY3DLAYER
10
227.44338349597484
20
138.91950481294108
30
0.0
 70
     32
  0
VERTEX
  8
MY3DLAYER
10
227.44338349597484
20
128.9195048129411
30
0.0
 70
     32
  0
VERTEX
  8
MY3DLAYER
10
230.4433834959749
20
128.9195048129411
30
0.0
 70
     32
  0
VERTEX
  8
MY3DLAYER
10
230.4433834959749
20
138.91950481294108
30
0.0
 70
     32
  0
SEQEND
  0
POLYLINE
 8
Group#2
 66
     1
70
    8
 10
0.0
 20
 0.0
 30
0.0
  0
VERTEX
  8
MY3DLAYER
10
230.44338349597484
20
119.16950481294104
30
0.0
 70
     32
  0
VERTEX
  8
MY3DLAYER
10
227.44338349597484
20
119.16950481294104
30
0.0
 70
     32
  0
VERTEX
  8
MY3DLAYER
10
227.44338349597484
20
109.16950481294107
30
0.0
 70
     32
  0
VERTEX
  8
MY3DLAYER
10
230.44338349597484
20
109.16950481294107
30
0.0
 70
     32
  0
VERTEX
  8
MY3DLAYER
10
230.44338349597484
20
119.16950481294104
30
0.0
 70
     32
  0
SEQEND
  0
POLYLINE
 8
Group#2
 66
     1
70
    8
 10
0.0
 20
 0.0
 30
0.0
  0
VERTEX
  8
MY3DLAYER
10
230.44338349597484
20
16.919504812941078
30
0.0
 70
     32
  0
VERTEX
  8
MY3DLAYER
10
227.44338349597484
20
16.919504812941078
30
0.0
 70
     32
  0
VERTEX
  8
MY3DLAYER
10
227.44338349597484
20
6.919504812941085
30
0.0
 70
     32
  0
VERTEX
  8
MY3DLAYER
10
230.44338349597484
20
6.919504812941085
30
0.0
 70
     32
  0
VERTEX
  8
MY3DLAYER
10
230.44338349597484
20
16.919504812941078
30
0.0
 70
     32
  0
SEQEND
  0
POLYLINE
 8
Group#2
 66
     1
70
    8
 10
0.0
 20
 0.0
 30
0.0
  0
VERTEX
  8
MY3DLAYER
10
227.44338349597484
20
1.9195048129410772
30
0.0
 70
     32
  0
VERTEX
  8
MY3DLAYER
10
227.44338349597484
20
-8.080495187058924
30
0.0
 70
     32
  0
VERTEX
  8
MY3DLAYER
10
230.44338349597484
20
-8.080495187058924
30
0.0
 70
     32
  0
VERTEX
  8
MY3DLAYER
10
230.44338349597484
20
1.9195048129410772
30
0.0
 70
     32
  0
VERTEX
  8
MY3DLAYER
10
227.44338349597484
20
1.9195048129410772
30
0.0
 70
     32
  0
SEQEND
  0
POLYLINE
 8
Group#2
 66
     1
70
    8
 10
0.0
 20
 0.0
 30
0.0
  0
VERTEX
  8
MY3DLAYER
10
380.4433834959748
20
16.9195048129411
30
0.0
 70
     32
  0
VERTEX
  8
MY3DLAYER
10
380.4433834959748
20
6.919504812941107
30
0.0
 70
     32
  0
VERTEX
  8
MY3DLAYER
10
383.4433834959748
20
6.919504812941107
30
0.0
 70
     32
  0
VERTEX
  8
MY3DLAYER
10
383.4433834959748
20
16.9195048129411
30
0.0
 70
     32
  0
VERTEX
  8
MY3DLAYER
10
380.4433834959748
20
16.9195048129411
30
0.0
 70
     32
  0
SEQEND
  0
POLYLINE
 8
Group#2
 66
     1
70
    8
 10
0.0
 20
 0.0
 30
0.0
  0
VERTEX
  8
MY3DLAYER
10
380.4433834959748
20
-8.080495187058924
30
0.0
 70
     32
  0
VERTEX
  8
MY3DLAYER
10
383.4433834959748
20
-8.080495187058924
30
0.0
 70
     32
  0
VERTEX
  8
MY3DLAYER
10
383.4433834959748
20
1.9195048129410772
30
0.0
 70
     32
  0
VERTEX
  8
MY3DLAYER
10
380.4433834959748
20
1.9195048129410772
30
0.0
 70
     32
  0
VERTEX
  8
MY3DLAYER
10
380.4433834959748
20
-8.080495187058924
30
0.0
 70
     32
  0
SEQEND
  0
POLYLINE
 8
Group#2
 66
     1
70
    8
 10
0.0
 20
 0.0
 30
0.0
  0
VERTEX
  8
MY3DLAYER
10
240.4433834959748
20
138.91950481294108
30
0.0
 70
     32
  0
VERTEX
  8
MY3DLAYER
10
240.4433834959748
20
135.91950481294108
30
0.0
 70
     32
  0
VERTEX
  8
MY3DLAYER
10
260.44338349597484
20
135.91950481294108
30
0.0
 70
     32
  0
VERTEX
  8
MY3DLAYER
10
260.44338349597484
20
138.91950481294108
30
0.0
 70
     32
  0
VERTEX
  8
MY3DLAYER
10
240.4433834959748
20
138.91950481294108
30
0.0
 70
     32
  0
SEQEND
  0
POLYLINE
 8
Group#2
 66
     1
70
    8
 10
0.0
 20
 0.0
 30
0.0
  0
VERTEX
  8
MY3DLAYER
10
270.4433834959748
20
135.91950481294108
30
0.0
 70
     32
  0
VERTEX
  8
MY3DLAYER
10
340.44338349597484
20
135.91950481294108
30
0.0
 70
     32
  0
VERTEX
  8
MY3DLAYER
10
340.44338349597484
20
138.91950481294108
30
0.0
 70
     32
  0
VERTEX
  8
MY3DLAYER
10
270.4433834959748
20
138.91950481294108
30
0.0
 70
     32
  0
VERTEX
  8
MY3DLAYER
10
270.4433834959748
20
135.91950481294108
30
0.0
 70
     32
  0
SEQEND
  0
POLYLINE
 8
Group#2
 66
     1
70
    8
 10
0.0
 20
 0.0
 30
0.0
  0
VERTEX
  8
MY3DLAYER
10
350.44338349597484
20
135.91950481294108
30
0.0
 70
     32
  0
VERTEX
  8
MY3DLAYER
10
370.4433834959748
20
135.91950481294108
30
0.0
 70
     32
  0
VERTEX
  8
MY3DLAYER
10
370.4433834959748
20
138.91950481294108
30
0.0
 70
     32
  0
VERTEX
  8
MY3DLAYER
10
350.44338349597484
20
138.91950481294108
30
0.0
 70
     32
  0
VERTEX
  8
MY3DLAYER
10
350.44338349597484
20
135.91950481294108
30
0.0
 70
     32
  0
SEQEND
  0
POLYLINE
 8
Group#2
 66
     1
70
    8
 10
0.0
 20
 0.0
 30
0.0
  0
VERTEX
  8
MY3DLAYER
10
255.44338349597484
20
120.9195048129411
30
0.0
 70
     32
  0
VERTEX
  8
MY3DLAYER
10
255.44338349597484
20
117.91950481294111
30
0.0
 70
     32
  0
VERTEX
  8
MY3DLAYER
10
285.44338349597484
20
117.91950481294111
30
0.0
 70
     32
  0
VERTEX
  8
MY3DLAYER
10
285.44338349597484
20
120.9195048129411
30
0.0
 70
     32
  0
VERTEX
  8
MY3DLAYER
10
255.44338349597484
20
120.9195048129411
30
0.0
 70
     32
  0
SEQEND
  0
POLYLINE
 8
Group#2
 66
     1
70
    8
 10
0.0
 20
 0.0
 30
0.0
  0
VERTEX
  8
MY3DLAYER
10
355.4433834959748
20
120.9195048129411
30
0.0
 70
     32
  0
VERTEX
  8
MY3DLAYER
10
325.44338349597484
20
120.9195048129411
30
0.0
 70
     32
  0
VERTEX
  8
MY3DLAYER
10
325.44338349597484
20
117.91950481294111
30
0.0
 70
     32
  0
VERTEX
  8
MY3DLAYER
10
355.4433834959748
20
117.91950481294111
30
0.0
 70
     32
  0
VERTEX
  8
MY3DLAYER
10
355.4433834959748
20
120.9195048129411
30
0.0
 70
     32
  0
SEQEND
  0
POLYLINE
 8
Group#2
 66
     1
70
    8
 10
0.0
 20
 0.0
 30
0.0
  0
VERTEX
  8
MY3DLAYER
10
295.4433834959748
20
117.91950481294111
30
0.0
 70
     32
  0
VERTEX
  8
MY3DLAYER
10
315.44338349597484
20
117.91950481294111
30
0.0
 70
     32
  0
VERTEX
  8
MY3DLAYER
10
315.44338349597484
20
120.9195048129411
30
0.0
 70
     32
  0
VERTEX
  8
MY3DLAYER
10
295.4433834959748
20
120.9195048129411
30
0.0
 70
     32
  0
VERTEX
  8
MY3DLAYER
10
295.4433834959748
20
117.91950481294111
30
0.0
 70
     32
  0
SEQEND
  0
POLYLINE
 8
Group#2
 66
     1
70
    8
 10
0.0
 20
 0.0
 30
0.0
  0
VERTEX
  8
MY3DLAYER
10
285.44338349597484
20
64.39950481294109
30
0.0
 70
     32
  0
VERTEX
  8
MY3DLAYER
10
255.44338349597484
20
64.39950481294109
30
0.0
 70
     32
  0
VERTEX
  8
MY3DLAYER
10
255.44338349597484
20
61.3995048129411
30
0.0
 70
     32
  0
VERTEX
  8
MY3DLAYER
10
285.44338349597484
20
61.3995048129411
30
0.0
 70
     32
  0
VERTEX
  8
MY3DLAYER
10
285.44338349597484
20
64.39950481294109
30
0.0
 70
     32
  0
SEQEND
  0
POLYLINE
 8
Group#2
 66
     1
70
    8
 10
0.0
 20
 0.0
 30
0.0
  0
VERTEX
  8
MY3DLAYER
10
295.4433834959748
20
61.3995048129411
30
0.0
 70
     32
  0
VERTEX
  8
MY3DLAYER
10
315.44338349597484
20
61.3995048129411
30
0.0
 70
     32
  0
VERTEX
  8
MY3DLAYER
10
315.44338349597484
20
64.39950481294109
30
0.0
 70
     32
  0
VERTEX
  8
MY3DLAYER
10
295.4433834959748
20
64.39950481294109
30
0.0
 70
     32
  0
VERTEX
  8
MY3DLAYER
10
295.4433834959748
20
61.3995048129411
30
0.0
 70
     32
  0
SEQEND
  0
POLYLINE
 8
Group#2
 66
     1
70
    8
 10
0.0
 20
 0.0
 30
0.0
  0
VERTEX
  8
MY3DLAYER
10
355.4433834959748
20
64.39950481294109
30
0.0
 70
     32
  0
VERTEX
  8
MY3DLAYER
10
325.44338349597484
20
64.39950481294109
30
0.0
 70
     32
  0
VERTEX
  8
MY3DLAYER
10
325.44338349597484
20
61.3995048129411
30
0.0
 70
     32
  0
VERTEX
  8
MY3DLAYER
10
355.4433834959748
20
61.3995048129411
30
0.0
 70
     32
  0
VERTEX
  8
MY3DLAYER
10
355.4433834959748
20
64.39950481294109
30
0.0
 70
     32
  0
SEQEND
  0
POLYLINE
 8
Group#2
 66
     1
70
    8
 10
0.0
 20
 0.0
 30
0.0
  0
VERTEX
  8
MY3DLAYER
10
265.44338349597484
20
28.399504812941103
30
0.0
 70
     32
  0
VERTEX
  8
MY3DLAYER
10
285.44338349597484
20
28.399504812941103
30
0.0
 70
     32
  0
VERTEX
  8
MY3DLAYER
10
285.44338349597484
20
53.3995048129411
30
0.0
 70
     32
  0
VERTEX
  8
MY3DLAYER
10
265.44338349597484
20
53.3995048129411
30
0.0
 70
     32
  0
VERTEX
  8
MY3DLAYER
10
265.44338349597484
20
28.399504812941103
30
0.0
 70
     32
  0
SEQEND
  0
POLYLINE
 8
Group#2
 66
     1
70
    8
 10
0.0
 20
 0.0
 30
0.0
  0
VERTEX
  8
MY3DLAYER
10
325.44338349597473
20
53.3995048129411
30
0.0
 70
     32
  0
VERTEX
  8
MY3DLAYER
10
325.44338349597473
20
28.399504812941103
30
0.0
 70
     32
  0
VERTEX
  8
MY3DLAYER
10
345.4433834959748
20
28.399504812941103
30
0.0
 70
     32
  0
VERTEX
  8
MY3DLAYER
10
345.4433834959748
20
53.3995048129411
30
0.0
 70
     32
  0
VERTEX
  8
MY3DLAYER
10
325.44338349597473
20
53.3995048129411
30
0.0
 70
     32
  0
SEQEND
  0
POLYLINE
 8
Group#2
 66
     1
70
    8
 10
0.0
 20
 0.0
 30
0.0
  0
VERTEX
  8
MY3DLAYER
10
361.69338349597473
20
-1.3795332927355948
30
0.0
 70
     32
  0
VERTEX
  8
MY3DLAYER
10
362.0551549283209
20
-1.5293839264925413
30
0.0
 70
     32
  0
VERTEX
  8
MY3DLAYER
10
362.44338349597473
20
-1.580495187058939
30
0.0
 70
     32
  0
VERTEX
  8
MY3DLAYER
10
362.83161206362854
20
-1.5293839264925413
30
0.0
 70
     32
  0
VERTEX
  8
MY3DLAYER
10
363.19338349597473
20
-1.3795332927355948
30
0.0
 70
     32
  0
VERTEX
  8
MY3DLAYER
10
363.50404366775456
20
-1.1411553588387544
30
0.0
 70
     32
  0
VERTEX
  8
MY3DLAYER
10
363.7424216016514
20
-0.830495187058929
30
0.0
 70
     32
  0
VERTEX
  8
MY3DLAYER
10
363.8922722354083
20
-0.4687237547127061
30
0.0
 70
     32
  0
VERTEX
  8
MY3DLAYER
10
363.94338349597473
20
-0.08049518705891913
30
0.0
 70
     32
  0
VERTEX
  8
MY3DLAYER
10
363.8922722354083
20
0.3077333805948678
30
0.0
 70
     32
  0
VERTEX
  8
MY3DLAYER
10
363.7424216016514
20
0.6695048129410908
30
0.0
 70
     32
  0
VERTEX
  8
MY3DLAYER
10
363.50404366775456
20
0.9801649847209161
30
0.0
 70
     32
  0
VERTEX
  8
MY3DLAYER
10
363.19338349597473
20
1.2185429186177565
30
0.0
 70
     32
  0
VERTEX
  8
MY3DLAYER
10
362.83161206362854
20
1.368393552374703
30
0.0
 70
     32
  0
VERTEX
  8
MY3DLAYER
10
362.44338349597473
20
1.4195048129411008
30
0.0
 70
     32
  0
VERTEX
  8
MY3DLAYER
10
362.0551549283209
20
1.368393552374703
30
0.0
 70
     32
  0
VERTEX
  8
MY3DLAYER
10
361.69338349597473
20
1.2185429186177565
30
0.0
 70
     32
  0
VERTEX
  8
MY3DLAYER
10
361.3827233241949
20
0.9801649847209161
30
0.0
 70
     32
  0
VERTEX
  8
MY3DLAYER
10
361.14434539029804
20
0.6695048129410908
30
0.0
 70
     32
  0
VERTEX
  8
MY3DLAYER
10
360.99449475654114
20
0.3077333805948678
30
0.0
 70
     32
  0
VERTEX
  8
MY3DLAYER
10
360.94338349597473
20
-0.08049518705891913
30
0.0
 70
     32
  0
VERTEX
  8
MY3DLAYER
10
360.99449475654114
20
-0.4687237547127061
30
0.0
 70
     32
  0
VERTEX
  8
MY3DLAYER
10
361.14434539029804
20
-0.830495187058929
30
0.0
 70
     32
  0
VERTEX
  8
MY3DLAYER
10
361.3827233241949
20
-1.1411553588387544
30
0.0
 70
     32
  0
VERTEX
  8
MY3DLAYER
10
361.69338349597473
20
-1.3795332927355948
30
0.0
 70
     32
  0
SEQEND
  0
POLYLINE
 8
Group#2
 66
     1
70
    8
 10
0.0
 20
 0.0
 30
0.0
  0
VERTEX
  8
MY3DLAYER
10
362.4433834959748
20
46.89950481294108
30
0.0
 70
     32
  0
VERTEX
  8
MY3DLAYER
10
362.8316120636286
20
46.95061607350749
30
0.0
 70
     32
  0
VERTEX
  8
MY3DLAYER
10
363.1933834959748
20
47.10046670726443
30
0.0
 70
     32
  0
VERTEX
  8
MY3DLAYER
10
363.5040436677546
20
47.338844641161266
30
0.0
 70
     32
  0
VERTEX
  8
MY3DLAYER
10
363.7424216016515
20
47.64950481294109
30
0.0
 70
     32
  0
VERTEX
  8
MY3DLAYER
10
363.89227223540837
20
48.01127624528731
30
0.0
 70
     32
  0
VERTEX
  8
MY3DLAYER
10
363.9433834959748
20
48.3995048129411
30
0.0
 70
     32
  0
VERTEX
  8
MY3DLAYER
10
363.89227223540837
20
48.787733380594894
30
0.0
 70
     32
  0
VERTEX
  8
MY3DLAYER
10
363.7424216016515
20
49.14950481294111
30
0.0
 70
     32
  0
VERTEX
  8
MY3DLAYER
10
363.5040436677546
20
49.46016498472094
30
0.0
 70
     32
  0
VERTEX
  8
MY3DLAYER
10
363.1933834959748
20
49.698542918617775
30
0.0
 70
     32
  0
VERTEX
  8
MY3DLAYER
10
362.8316120636286
20
49.848393552374716
30
0.0
 70
     32
  0
VERTEX
  8
MY3DLAYER
10
362.4433834959748
20
49.899504812941124
30
0.0
 70
     32
  0
VERTEX
  8
MY3DLAYER
10
362.055154928321
20
49.848393552374716
30
0.0
 70
     32
  0
VERTEX
  8
MY3DLAYER
10
361.6933834959748
20
49.698542918617775
30
0.0
 70
     32
  0
VERTEX
  8
MY3DLAYER
10
361.38272332419496
20
49.46016498472094
30
0.0
 70
     32
  0
VERTEX
  8
MY3DLAYER
10
361.1443453902981
20
49.14950481294111
30
0.0
 70
     32
  0
VERTEX
  8
MY3DLAYER
10
360.9944947565412
20
48.787733380594894
30
0.0
 70
     32
  0
VERTEX
  8
MY3DLAYER
10
360.9433834959748
20
48.3995048129411
30
0.0
 70
     32
  0
VERTEX
  8
MY3DLAYER
10
360.9944947565412
20
48.01127624528731
30
0.0
 70
     32
  0
VERTEX
  8
MY3DLAYER
10
361.1443453902981
20
47.64950481294109
30
0.0
 70
     32
  0
VERTEX
  8
MY3DLAYER
10
361.38272332419496
20
47.338844641161266
30
0.0
 70
     32
  0
VERTEX
  8
MY3DLAYER
10
361.6933834959748
20
47.10046670726443
30
0.0
 70
     32
  0
VERTEX
  8
MY3DLAYER
10
362.055154928321
20
46.95061607350749
30
0.0
 70
     32
  0
VERTEX
  8
MY3DLAYER
10
362.4433834959748
20
46.89950481294108
30
0.0
 70
     32
  0
SEQEND
  0
POLYLINE
 8
Group#2
 66
     1
70
    8
 10
0.0
 20
 0.0
 30
0.0
  0
VERTEX
  8
MY3DLAYER
10
249.9433834959748
20
48.3995048129411
30
0.0
 70
     32
  0
VERTEX
  8
MY3DLAYER
10
249.8922722354084
20
48.787733380594894
30
0.0
 70
     32
  0
VERTEX
  8
MY3DLAYER
10
249.74242160165147
20
49.14950481294111
30
0.0
 70
     32
  0
VERTEX
  8
MY3DLAYER
10
249.50404366775464
20
49.46016498472094
30
0.0
 70
     32
  0
VERTEX
  8
MY3DLAYER
10
249.1933834959748
20
49.698542918617775
30
0.0
 70
     32
  0
VERTEX
  8
MY3DLAYER
10
248.8316120636286
20
49.848393552374716
30
0.0
 70
     32
  0
VERTEX
  8
MY3DLAYER
10
248.4433834959748
20
49.899504812941124
30
0.0
 70
     32
  0
VERTEX
  8
MY3DLAYER
10
248.055154928321
20
49.848393552374716
30
0.0
 70
     32
  0
VERTEX
  8
MY3DLAYER
10
247.69338349597479
20
49.698542918617775
30
0.0
 70
     32
  0
VERTEX
  8
MY3DLAYER
10
247.38272332419496
20
49.46016498472094
30
0.0
 70
     32
  0
VERTEX
  8
MY3DLAYER
10
247.14434539029813
20
49.14950481294111
30
0.0
 70
     32
  0
VERTEX
  8
MY3DLAYER
10
246.9944947565412
20
48.787733380594894
30
0.0
 70
     32
  0
VERTEX
  8
MY3DLAYER
10
246.94338349597479
20
48.3995048129411
30
0.0
 70
     32
  0
VERTEX
  8
MY3DLAYER
10
246.9944947565412
20
48.01127624528731
30
0.0
 70
     32
  0
VERTEX
  8
MY3DLAYER
10
247.14434539029813
20
47.64950481294109
30
0.0
 70
     32
  0
VERTEX
  8
MY3DLAYER
10
247.38272332419496
20
47.338844641161266
30
0.0
 70
     32
  0
VERTEX
  8
MY3DLAYER
10
247.69338349597479
20
47.10046670726443
30
0.0
 70
     32
  0
VERTEX
  8
MY3DLAYER
10
248.055154928321
20
46.95061607350749
30
0.0
 70
     32
  0
VERTEX
  8
MY3DLAYER
10
248.4433834959748
20
46.89950481294108
30
0.0
 70
     32
  0
VERTEX
  8
MY3DLAYER
10
248.8316120636286
20
46.95061607350749
30
0.0
 70
     32
  0
VERTEX
  8
MY3DLAYER
10
249.1933834959748
20
47.10046670726443
30
0.0
 70
     32
  0
VERTEX
  8
MY3DLAYER
10
249.50404366775464
20
47.338844641161266
30
0.0
 70
     32
  0
VERTEX
  8
MY3DLAYER
10
249.74242160165147
20
47.64950481294109
30
0.0
 70
     32
  0
VERTEX
  8
MY3DLAYER
10
249.8922722354084
20
48.01127624528731
30
0.0
 70
     32
  0
VERTEX
  8
MY3DLAYER
10
249.9433834959748
20
48.3995048129411
30
0.0
 70
     32
  0
SEQEND
  0
POLYLINE
 8
Group#2
 66
     1
70
    8
 10
0.0
 20
 0.0
 30
0.0
  0
VERTEX
  8
MY3DLAYER
10
249.9433834959748
20
-0.08049518705892478
30
0.0
 70
     32
  0
VERTEX
  8
MY3DLAYER
10
249.8922722354084
20
0.3077333805948622
30
0.0
 70
     32
  0
VERTEX
  8
MY3DLAYER
10
249.74242160165147
20
0.6695048129410851
30
0.0
 70
     32
  0
VERTEX
  8
MY3DLAYER
10
249.50404366775464
20
0.9801649847209104
30
0.0
 70
     32
  0
VERTEX
  8
MY3DLAYER
10
249.1933834959748
20
1.218542918617751
30
0.0
 70
     32
  0
VERTEX
  8
MY3DLAYER
10
248.8316120636286
20
1.3683935523746975
30
0.0
 70
     32
  0
VERTEX
  8
MY3DLAYER
10
248.4433834959748
20
1.419504812941095
30
0.0
 70
     32
  0
VERTEX
  8
MY3DLAYER
10
248.055154928321
20
1.3683935523746975
30
0.0
 70
     32
  0
VERTEX
  8
MY3DLAYER
10
247.69338349597479
20
1.218542918617751
30
0.0
 70
     32
  0
VERTEX
  8
MY3DLAYER
10
247.38272332419496
20
0.9801649847209104
30
0.0
 70
     32
  0
VERTEX
  8
MY3DLAYER
10
247.14434539029813
20
0.6695048129410851
30
0.0
 70
     32
  0
VERTEX
  8
MY3DLAYER
10
246.9944947565412
20
0.3077333805948622
30
0.0
 70
     32
  0
VERTEX
  8
MY3DLAYER
10
246.94338349597479
20
-0.08049518705892478
30
0.0
 70
     32
  0
VERTEX
  8
MY3DLAYER
10
246.9944947565412
20
-0.4687237547127103
30
0.0
 70
     32
  0
VERTEX
  8
MY3DLAYER
10
247.14434539029813
20
-0.8304951870589347
30
0.0
 70
     32
  0
VERTEX
  8
MY3DLAYER
10
247.38272332419496
20
-1.14115535883876
30
0.0
 70
     32
  0
VERTEX
  8
MY3DLAYER
10
247.69338349597479
20
-1.379533292735599
30
0.0
 70
     32
  0
VERTEX
  8
MY3DLAYER
10
248.055154928321
20
-1.5293839264925455
30
0.0
 70
     32
  0
VERTEX
  8
MY3DLAYER
10
248.4433834959748
20
-1.5804951870589445
30
0.0
 70
     32
  0
VERTEX
  8
MY3DLAYER
10
248.8316120636286
20
-1.529383926492547
30
0.0
 70
     32
  0
VERTEX
  8
MY3DLAYER
10
249.1933834959748
20
-1.3795332927356005
30
0.0
 70
     32
  0
VERTEX
  8
MY3DLAYER
10
249.50404366775464
20
-1.14115535883876
30
0.0
 70
     32
  0
VERTEX
  8
MY3DLAYER
10
249.74242160165147
20
-0.8304951870589347
30
0.0
 70
     32
  0
VERTEX
  8
MY3DLAYER
10
249.8922722354084
20
-0.46872375471271177
30
0.0
 70
     32
  0
VERTEX
  8
MY3DLAYER
10
249.9433834959748
20
-0.08049518705892478
30
0.0
 70
     32
  0
SEQEND
  0
POLYLINE
 8
Group#2
 66
     1
70
    8
 10
0.0
 20
 0.0
 30
0.0
  0
VERTEX
  8
MY3DLAYER
10
367.49241271689294
20
220.75510343879625
30
4.5119463681049213e-14
 70
     32
  0
VERTEX
  8
MY3DLAYER
10
367.49241271689294
20
168.27510343879644
30
4.5119463681049213e-14
 70
     32
  0
VERTEX
  8
MY3DLAYER
10
367.4667473010144
20
167.88352486213628
30
4.5119463681049213e-14
 70
     32
  0
VERTEX
  8
MY3DLAYER
10
367.39019019576017
20
167.4986463034889
30
4.5119463681049213e-14
 70
     32
  0
VERTEX
  8
MY3DLAYER
10
367.2640513144268
20
167.12705314170117
30
4.5119463681049213e-14
 70
     32
  0
VERTEX
  8
MY3DLAYER
10
367.09048892824626
20
166.77510343879644
30
4.5119463681049213e-14
 70
     32
  0
VERTEX
  8
MY3DLAYER
10
366.87247273776666
20
166.44881915177027
30
4.5119463681049213e-14
 70
     32
  0
VERTEX
  8
MY3DLAYER
10
366.6137330604526
20
166.1537830952368
30
4.5119463681049213e-14
 70
     32
  0
VERTEX
  8
MY3DLAYER
10
366.3186970039191
20
165.89504341792272
30
4.5119463681049213e-14
 70
     32
  0
VERTEX
  8
MY3DLAYER
10
365.992412716893
20
165.6770272274431
30
4.5119463681049213e-14
 70
     32
  0
VERTEX
  8
MY3DLAYER
10
365.64046301398827
20
165.50346484126257
30
4.5119463681049213e-14
 70
     32
  0
VERTEX
  8
MY3DLAYER
10
365.2688698522005
20
165.3773259599292
30
4.5119463681049213e-14
 70
     32
  0
VERTEX
  8
MY3DLAYER
10
364.88399129355315
20
165.30076885467497
30
4.5119463681049213e-14
 70
     32
  0
VERTEX
  8
MY3DLAYER
10
364.492412716893
20
165.2751034387964
30
4.5119463681049213e-14
 70
     32
  0
VERTEX
  8
MY3DLAYER
10
246.49241271689314
20
165.27510343879644
30
4.5119463681049213e-14
 70
     32
  0
VERTEX
  8
MY3DLAYER
10
246.100834140233
20
165.30076885467503
30
4.5119463681049213e-14
 70
     32
  0
VERTEX
  8
MY3DLAYER
10
245.7159555815856
20
165.37732595992924
30
4.5119463681049213e-14
 70
     32
  0
VERTEX
  8
MY3DLAYER
10
245.34436241979787
20
165.50346484126257
30
4.5119463681049213e-14
 70
     32
  0
VERTEX
  8
MY3DLAYER
10
244.9924127168931
20
165.67702722744315
30
4.5119463681049213e-14
 70
     32
  0
VERTEX
  8
MY3DLAYER
10
244.666128429867
20
165.89504341792275
30
4.5119463681049213e-14
 70
     32
  0
VERTEX
  8
MY3DLAYER
10
244.3710923733335
20
166.1537830952368
30
4.5119463681049213e-14
 70
     32
  0
VERTEX
  8
MY3DLAYER
10
244.11235269601946
20
166.4488191517703
30
4.5119463681049213e-14
 70
     32
  0
VERTEX
  8
MY3DLAYER
10
243.89433650553985
20
166.77510343879644
30
4.5119463681049213e-14
 70
     32
  0
VERTEX
  8
MY3DLAYER
10
243.72077411935928
20
167.12705314170117
30
4.5119463681049213e-14
 70
     32
  0
VERTEX
  8
MY3DLAYER
10
243.59463523802594
20
167.4986463034889
30
4.5119463681049213e-14
 70
     32
  0
VERTEX
  8
MY3DLAYER
10
243.51807813277173
20
167.88352486213628
30
4.5119463681049213e-14
 70
     32
  0
VERTEX
  8
MY3DLAYER
10
243.49241271689314
20
168.27510343879644
30
4.5119463681049213e-14
 70
     32
  0
VERTEX
  8
MY3DLAYER
10
243.49241271689314
20
220.75510343879625
30
4.5119463681049213e-14
 70
     32
  0
VERTEX
  8
MY3DLAYER
10
243.51807813277173
20
221.14668201545643
30
4.5119463681049213e-14
 70
     32
  0
VERTEX
  8
MY3DLAYER
10
243.59463523802594
20
221.53156057410382
30
4.5119463681049213e-14
 70
     32
  0
VERTEX
  8
MY3DLAYER
10
243.72077411935928
20
221.90315373589152
30
4.5119463681049213e-14
 70
     32
  0
VERTEX
  8
MY3DLAYER
10
243.89433650553985
20
222.25510343879625
30
4.5119463681049213e-14
 70
     32
  0
VERTEX
  8
MY3DLAYER
10
244.11235269601946
20
222.58138772582242
30
4.5119463681049213e-14
 70
     32
  0
VERTEX
  8
MY3DLAYER
10
244.3710923733335
20
222.87642378235586
30
4.5119463681049213e-14
 70
     32
  0
VERTEX
  8
MY3DLAYER
10
244.666128429867
20
223.13516345966997
30
4.5119463681049213e-14
 70
     32
  0
VERTEX
  8
MY3DLAYER
10
244.99241271689317
20
223.35317965014957
30
4.5119463681049213e-14
 70
     32
  0
VERTEX
  8
MY3DLAYER
10
245.34436241979787
20
223.5267420363301
30
4.5119463681049213e-14
 70
     32
  0
VERTEX
  8
MY3DLAYER
10
245.7159555815856
20
223.65288091766342
30
4.5119463681049213e-14
 70
     32
  0
VERTEX
  8
MY3DLAYER
10
246.100834140233
20
223.72943802291763
30
4.5119463681049213e-14
 70
     32
  0
VERTEX
  8
MY3DLAYER
10
246.49241271689314
20
223.75510343879623
30
4.5119463681049213e-14
 70
     32
  0
VERTEX
  8
MY3DLAYER
10
364.492412716893
20
223.75510343879625
30
4.5119463681049213e-14
 70
     32
  0
VERTEX
  8
MY3DLAYER
10
364.88399129355315
20
223.7294380229177
30
4.5119463681049213e-14
 70
     32
  0
VERTEX
  8
MY3DLAYER
10
365.2688698522005
20
223.65288091766348
30
4.5119463681049213e-14
 70
     32
  0
VERTEX
  8
MY3DLAYER
10
365.64046301398827
20
223.52674203633012
30
4.5119463681049213e-14
 70
     32
  0
VERTEX
  8
MY3DLAYER
10
365.99241271689294
20
223.35317965014957
30
4.5119463681049213e-14
 70
     32
  0
VERTEX
  8
MY3DLAYER
10
366.3186970039191
20
223.13516345966997
30
4.5119463681049213e-14
 70
     32
  0
VERTEX
  8
MY3DLAYER
10
366.6137330604526
20
222.87642378235591
30
4.5119463681049213e-14
 70
     32
  0
VERTEX
  8
MY3DLAYER
10
366.87247273776666
20
222.58138772582242
30
4.5119463681049213e-14
 70
     32
  0
VERTEX
  8
MY3DLAYER
10
367.09048892824626
20
222.25510343879628
30
4.5119463681049213e-14
 70
     32
  0
VERTEX
  8
MY3DLAYER
10
367.2640513144268
20
221.90315373589152
30
4.5119463681049213e-14
 70
     32
  0
VERTEX
  8
MY3DLAYER
10
367.39019019576017
20
221.53156057410382
30
4.5119463681049213e-14
 70
     32
  0
VERTEX
  8
MY3DLAYER
10
367.4667473010144
20
221.14668201545643
30
4.5119463681049213e-14
 70
     32
  0
VERTEX
  8
MY3DLAYER
10
367.49241271689294
20
220.75510343879625
30
4.5119463681049213e-14
 70
     32
  0
SEQEND
  0
POLYLINE
 8
Group#2
 66
     1
70
    8
 10
0.0
 20
 0.0
 30
0.0
  0
VERTEX
  8
MY3DLAYER
10
362.492412716893
20
220.25510343879628
30
4.5119463681049213e-14
 70
     32
  0
VERTEX
  8
MY3DLAYER
10
362.1041841492392
20
220.20399217822987
30
4.5119463681049213e-14
 70
     32
  0
VERTEX
  8
MY3DLAYER
10
361.74241271689294
20
220.05414154447294
30
4.5119463681049213e-14
 70
     32
  0
VERTEX
  8
MY3DLAYER
10
361.4317525451131
20
219.8157636105761
30
4.5119463681049213e-14
 70
     32
  0
VERTEX
  8
MY3DLAYER
10
361.1933746112163
20
219.50510343879628
30
4.5119463681049213e-14
 70
     32
  0
VERTEX
  8
MY3DLAYER
10
361.04352397745936
20
219.14333200645007
30
4.5119463681049213e-14
 70
     32
  0
VERTEX
  8
MY3DLAYER
10
360.99241271689294
20
218.75510343879628
30
4.5119463681049213e-14
 70
     32
  0
VERTEX
  8
MY3DLAYER
10
361.04352397745936
20
218.36687487114247
30
4.5119463681049213e-14
 70
     32
  0
VERTEX
  8
MY3DLAYER
10
361.1933746112163
20
218.00510343879625
30
4.5119463681049213e-14
 70
     32
  0
VERTEX
  8
MY3DLAYER
10
361.4317525451131
20
217.69444326701642
30
4.5119463681049213e-14
 70
     32
  0
VERTEX
  8
MY3DLAYER
10
361.74241271689294
20
217.4560653331196
30
4.5119463681049213e-14
 70
     32
  0
VERTEX
  8
MY3DLAYER
10
362.1041841492392
20
217.30621469936267
30
4.5119463681049213e-14
 70
     32
  0
VERTEX
  8
MY3DLAYER
10
362.492412716893
20
217.25510343879625
30
4.5119463681049213e-14
 70
     32
  0
VERTEX
  8
MY3DLAYER
10
362.88064128454675
20
217.30621469936267
30
4.5119463681049213e-14
 70
     32
  0
VERTEX
  8
MY3DLAYER
10
363.242412716893
20
217.4560653331196
30
4.5119463681049213e-14
 70
     32
  0
VERTEX
  8
MY3DLAYER
10
363.55307288867283
20
217.69444326701642
30
4.5119463681049213e-14
 70
     32
  0
VERTEX
  8
MY3DLAYER
10
363.79145082256963
20
218.00510343879625
30
4.5119463681049213e-14
 70
     32
  0
VERTEX
  8
MY3DLAYER
10
363.9413014563266
20
218.36687487114247
30
4.5119463681049213e-14
 70
     32
  0
VERTEX
  8
MY3DLAYER
10
363.992412716893
20
218.75510343879628
30
4.5119463681049213e-14
 70
     32
  0
VERTEX
  8
MY3DLAYER
10
363.9413014563266
20
219.14333200645007
30
4.5119463681049213e-14
 70
     32
  0
VERTEX
  8
MY3DLAYER
10
363.79145082256963
20
219.50510343879628
30
4.5119463681049213e-14
 70
     32
  0
VERTEX
  8
MY3DLAYER
10
363.55307288867283
20
219.8157636105761
30
4.5119463681049213e-14
 70
     32
  0
VERTEX
  8
MY3DLAYER
10
363.242412716893
20
220.05414154447294
30
4.5119463681049213e-14
 70
     32
  0
VERTEX
  8
MY3DLAYER
10
362.88064128454675
20
220.20399217822987
30
4.5119463681049213e-14
 70
     32
  0
VERTEX
  8
MY3DLAYER
10
362.492412716893
20
220.25510343879628
30
4.5119463681049213e-14
 70
     32
  0
SEQEND
  0
POLYLINE
 8
Group#2
 66
     1
70
    8
 10
0.0
 20
 0.0
 30
0.0
  0
VERTEX
  8
MY3DLAYER
10
361.74241271689294
20
168.97606533311978
30
4.5119463681049213e-14
 70
     32
  0
VERTEX
  8
MY3DLAYER
10
362.1041841492392
20
168.82621469936282
30
4.5119463681049213e-14
 70
     32
  0
VERTEX
  8
MY3DLAYER
10
362.492412716893
20
168.7751034387964
30
4.5119463681049213e-14
 70
     32
  0
VERTEX
  8
MY3DLAYER
10
362.88064128454675
20
168.82621469936282
30
4.5119463681049213e-14
 70
     32
  0
VERTEX
  8
MY3DLAYER
10
363.242412716893
20
168.97606533311978
30
4.5119463681049213e-14
 70
     32
  0
VERTEX
  8
MY3DLAYER
10
363.55307288867283
20
169.21444326701658
30
4.5119463681049213e-14
 70
     32
  0
VERTEX
  8
MY3DLAYER
10
363.79145082256963
20
169.52510343879644
30
4.5119463681049213e-14
 70
     32
  0
VERTEX
  8
MY3DLAYER
10
363.9413014563266
20
169.88687487114265
30
4.5119463681049213e-14
 70
     32
  0
VERTEX
  8
MY3DLAYER
10
363.992412716893
20
170.27510343879644
30
4.5119463681049213e-14
 70
     32
  0
VERTEX
  8
MY3DLAYER
10
363.9413014563266
20
170.66333200645022
30
4.5119463681049213e-14
 70
     32
  0
VERTEX
  8
MY3DLAYER
10
363.79145082256963
20
171.02510343879644
30
4.5119463681049213e-14
 70
     32
  0
VERTEX
  8
MY3DLAYER
10
363.55307288867283
20
171.33576361057627
30
4.5119463681049213e-14
 70
     32
  0
VERTEX
  8
MY3DLAYER
10
363.242412716893
20
171.57414154447312
30
4.5119463681049213e-14
 70
     32
  0
VERTEX
  8
MY3DLAYER
10
362.88064128454675
20
171.72399217823005
30
4.5119463681049213e-14
 70
     32
  0
VERTEX
  8
MY3DLAYER
10
362.492412716893
20
171.77510343879646
30
4.5119463681049213e-14
 70
     32
  0
VERTEX
  8
MY3DLAYER
10
362.1041841492392
20
171.72399217823005
30
4.5119463681049213e-14
 70
     32
  0
VERTEX
  8
MY3DLAYER
10
361.74241271689294
20
171.57414154447312
30
4.5119463681049213e-14
 70
     32
  0
VERTEX
  8
MY3DLAYER
10
361.4317525451131
20
171.3357636105763
30
4.5119463681049213e-14
 70
     32
  0
VERTEX
  8
MY3DLAYER
10
361.1933746112163
20
171.02510343879644
30
4.5119463681049213e-14
 70
     32
  0
VERTEX
  8
MY3DLAYER
10
361.04352397745936
20
170.66333200645022
30
4.5119463681049213e-14
 70
     32
  0
VERTEX
  8
MY3DLAYER
10
360.99241271689294
20
170.27510343879644
30
4.5119463681049213e-14
 70
     32
  0
VERTEX
  8
MY3DLAYER
10
361.04352397745936
20
169.88687487114265
30
4.5119463681049213e-14
 70
     32
  0
VERTEX
  8
MY3DLAYER
10
361.1933746112163
20
169.52510343879644
30
4.5119463681049213e-14
 70
     32
  0
VERTEX
  8
MY3DLAYER
10
361.4317525451131
20
169.2144432670166
30
4.5119463681049213e-14
 70
     32
  0
VERTEX
  8
MY3DLAYER
10
361.74241271689294
20
168.97606533311978
30
4.5119463681049213e-14
 70
     32
  0
SEQEND
  0
POLYLINE
 8
Group#2
 66
     1
70
    8
 10
0.0
 20
 0.0
 30
0.0
  0
VERTEX
  8
MY3DLAYER
10
248.10418414923933
20
171.72399217823005
30
4.5119463681049213e-14
 70
     32
  0
VERTEX
  8
MY3DLAYER
10
247.74241271689314
20
171.57414154447312
30
4.5119463681049213e-14
 70
     32
  0
VERTEX
  8
MY3DLAYER
10
247.43175254511328
20
171.3357636105763
30
4.5119463681049213e-14
 70
     32
  0
VERTEX
  8
MY3DLAYER
10
247.19337461121648
20
171.02510343879644
30
4.5119463681049213e-14
 70
     32
  0
VERTEX
  8
MY3DLAYER
10
247.04352397745953
20
170.66333200645022
30
4.5119463681049213e-14
 70
     32
  0
VERTEX
  8
MY3DLAYER
10
246.9924127168931
20
170.27510343879644
30
4.5119463681049213e-14
 70
     32
  0
VERTEX
  8
MY3DLAYER
10
247.04352397745953
20
169.88687487114265
30
4.5119463681049213e-14
 70
     32
  0
VERTEX
  8
MY3DLAYER
10
247.19337461121648
20
169.52510343879644
30
4.5119463681049213e-14
 70
     32
  0
VERTEX
  8
MY3DLAYER
10
247.43175254511328
20
169.2144432670166
30
4.5119463681049213e-14
 70
     32
  0
VERTEX
  8
MY3DLAYER
10
247.74241271689314
20
168.97606533311978
30
4.5119463681049213e-14
 70
     32
  0
VERTEX
  8
MY3DLAYER
10
248.10418414923933
20
168.82621469936282
30
4.5119463681049213e-14
 70
     32
  0
VERTEX
  8
MY3DLAYER
10
248.49241271689314
20
168.7751034387964
30
4.5119463681049213e-14
 70
     32
  0
VERTEX
  8
MY3DLAYER
10
248.88064128454695
20
168.82621469936282
30
4.5119463681049213e-14
 70
     32
  0
VERTEX
  8
MY3DLAYER
10
249.24241271689314
20
168.97606533311978
30
4.5119463681049213e-14
 70
     32
  0
VERTEX
  8
MY3DLAYER
10
249.553072888673
20
169.21444326701658
30
4.5119463681049213e-14
 70
     32
  0
VERTEX
  8
MY3DLAYER
10
249.79145082256983
20
169.52510343879644
30
4.5119463681049213e-14
 70
     32
  0
VERTEX
  8
MY3DLAYER
10
249.94130145632676
20
169.88687487114265
30
4.5119463681049213e-14
 70
     32
  0
VERTEX
  8
MY3DLAYER
10
249.99241271689317
20
170.27510343879644
30
4.5119463681049213e-14
 70
     32
  0
VERTEX
  8
MY3DLAYER
10
249.94130145632676
20
170.66333200645022
30
4.5119463681049213e-14
 70
     32
  0
VERTEX
  8
MY3DLAYER
10
249.79145082256983
20
171.02510343879644
30
4.5119463681049213e-14
 70
     32
  0
VERTEX
  8
MY3DLAYER
10
249.553072888673
20
171.33576361057627
30
4.5119463681049213e-14
 70
     32
  0
VERTEX
  8
MY3DLAYER
10
249.24241271689314
20
171.57414154447312
30
4.5119463681049213e-14
 70
     32
  0
VERTEX
  8
MY3DLAYER
10
248.88064128454695
20
171.72399217823005
30
4.5119463681049213e-14
 70
     32
  0
VERTEX
  8
MY3DLAYER
10
248.49241271689314
20
171.77510343879646
30
4.5119463681049213e-14
 70
     32
  0
VERTEX
  8
MY3DLAYER
10
248.10418414923933
20
171.72399217823005
30
4.5119463681049213e-14
 70
     32
  0
SEQEND
  0
POLYLINE
 8
Group#2
 66
     1
70
    8
 10
0.0
 20
 0.0
 30
0.0
  0
VERTEX
  8
MY3DLAYER
10
249.94130145632676
20
219.14333200645007
30
4.5119463681049213e-14
 70
     32
  0
VERTEX
  8
MY3DLAYER
10
249.79145082256983
20
219.50510343879628
30
4.5119463681049213e-14
 70
     32
  0
VERTEX
  8
MY3DLAYER
10
249.553072888673
20
219.8157636105761
30
4.5119463681049213e-14
 70
     32
  0
VERTEX
  8
MY3DLAYER
10
249.24241271689314
20
220.05414154447294
30
4.5119463681049213e-14
 70
     32
  0
VERTEX
  8
MY3DLAYER
10
248.88064128454695
20
220.20399217822987
30
4.5119463681049213e-14
 70
     32
  0
VERTEX
  8
MY3DLAYER
10
248.49241271689314
20
220.25510343879628
30
4.5119463681049213e-14
 70
     32
  0
VERTEX
  8
MY3DLAYER
10
248.10418414923933
20
220.20399217822987
30
4.5119463681049213e-14
 70
     32
  0
VERTEX
  8
MY3DLAYER
10
247.74241271689314
20
220.05414154447294
30
4.5119463681049213e-14
 70
     32
  0
VERTEX
  8
MY3DLAYER
10
247.43175254511328
20
219.8157636105761
30
4.5119463681049213e-14
 70
     32
  0
VERTEX
  8
MY3DLAYER
10
247.19337461121648
20
219.50510343879628
30
4.5119463681049213e-14
 70
     32
  0
VERTEX
  8
MY3DLAYER
10
247.04352397745953
20
219.14333200645007
30
4.5119463681049213e-14
 70
     32
  0
VERTEX
  8
MY3DLAYER
10
246.9924127168931
20
218.75510343879628
30
4.5119463681049213e-14
 70
     32
  0
VERTEX
  8
MY3DLAYER
10
247.04352397745953
20
218.36687487114247
30
4.5119463681049213e-14
 70
     32
  0
VERTEX
  8
MY3DLAYER
10
247.19337461121648
20
218.00510343879625
30
4.5119463681049213e-14
 70
     32
  0
VERTEX
  8
MY3DLAYER
10
247.43175254511328
20
217.69444326701642
30
4.5119463681049213e-14
 70
     32
  0
VERTEX
  8
MY3DLAYER
10
247.74241271689314
20
217.4560653331196
30
4.5119463681049213e-14
 70
     32
  0
VERTEX
  8
MY3DLAYER
10
248.10418414923933
20
217.30621469936267
30
4.5119463681049213e-14
 70
     32
  0
VERTEX
  8
MY3DLAYER
10
248.49241271689314
20
217.25510343879625
30
4.5119463681049213e-14
 70
     32
  0
VERTEX
  8
MY3DLAYER
10
248.88064128454695
20
217.30621469936267
30
4.5119463681049213e-14
 70
     32
  0
VERTEX
  8
MY3DLAYER
10
249.24241271689314
20
217.4560653331196
30
4.5119463681049213e-14
 70
     32
  0
VERTEX
  8
MY3DLAYER
10
249.553072888673
20
217.69444326701642
30
4.5119463681049213e-14
 70
     32
  0
VERTEX
  8
MY3DLAYER
10
249.79145082256983
20
218.00510343879625
30
4.5119463681049213e-14
 70
     32
  0
VERTEX
  8
MY3DLAYER
10
249.94130145632676
20
218.36687487114247
30
4.5119463681049213e-14
 70
     32
  0
VERTEX
  8
MY3DLAYER
10
249.99241271689317
20
218.75510343879628
30
4.5119463681049213e-14
 70
     32
  0
VERTEX
  8
MY3DLAYER
10
249.94130145632676
20
219.14333200645007
30
4.5119463681049213e-14
 70
     32
  0
SEQEND
  0
POLYLINE
 8
Group#2
 66
     1
70
    8
 10
0.0
 20
 0.0
 30
0.0
  0
VERTEX
  8
MY3DLAYER
10
325.4924127168931
20
215.75510343879628
30
4.5119463681049213e-14
 70
     32
  0
VERTEX
  8
MY3DLAYER
10
325.4924127168931
20
220.75510343879625
30
4.5119463681049213e-14
 70
     32
  0
VERTEX
  8
MY3DLAYER
10
285.49241271689306
20
220.75510343879625
30
4.5119463681049213e-14
 70
     32
  0
VERTEX
  8
MY3DLAYER
10
285.49241271689306
20
215.75510343879628
30
4.5119463681049213e-14
 70
     32
  0
VERTEX
  8
MY3DLAYER
10
325.4924127168931
20
215.75510343879628
30
4.5119463681049213e-14
 70
     32
  0
SEQEND
  0
POLYLINE
 8
Group#2
 66
     1
70
    8
 10
0.0
 20
 0.0
 30
0.0
  0
VERTEX
  8
MY3DLAYER
10
325.4924127168931
20
173.27510343879644
30
4.5119463681049213e-14
 70
     32
  0
VERTEX
  8
MY3DLAYER
10
285.49241271689306
20
173.27510343879644
30
4.5119463681049213e-14
 70
     32
  0
VERTEX
  8
MY3DLAYER
10
285.49241271689306
20
168.27510343879644
30
4.5119463681049213e-14
 70
     32
  0
VERTEX
  8
MY3DLAYER
10
325.4924127168931
20
168.27510343879644
30
4.5119463681049213e-14
 70
     32
  0
VERTEX
  8
MY3DLAYER
10
325.4924127168931
20
173.27510343879644
30
4.5119463681049213e-14
 70
     32
  0
SEQEND
 0
ENDSEC
 0
EOF
